<svg viewBox="0 0 16 14" fill="none" xmlns="http://www.w3.org/2000/svg">
<path d="M15.5278 1.1905C14.9838 0.757171 14.1883 0.843149 13.7512 1.38231L6.74159 10.1844C6.51337 10.4263 6.2049 10.5664 5.86983 10.5797C5.52491 10.5935 5.19825 10.4714 4.9522 10.2397L2.13813 7.80752C1.63423 7.32892 0.834377 7.34576 0.351394 7.84503C-0.131526 8.34437 -0.114592 9.13714 0.389242 9.61581L3.20704 12.0515C3.9185 12.7217 4.8391 13.0857 5.81455 13.0857C5.86667 13.0857 5.91912 13.0846 5.9715 13.0825C7.00469 13.0413 7.95366 12.5982 8.64345 11.8347C8.65842 11.8181 8.67295 11.8011 8.6871 11.7837L15.7214 2.95126C16.1585 2.41203 16.0719 1.62377 15.5278 1.1905Z" fill="currentColor"/>
</svg>
