<svg viewBox="0 0 10 9" fill="none" xmlns="http://www.w3.org/2000/svg"><path d="M9.0983 0.880351C8.76193 0.610039 8.27017 0.663672 7.99994 1L4.21443 6.23022C4.07334 6.38112 3.88263 6.46854 3.67548 6.47686C3.46224 6.48545 3.26029 6.40928 3.10818 6.26471L1.58113 4.87205C1.2696 4.57349 0.775113 4.584 0.476519 4.89545C0.177964 5.20693 0.188433 5.70144 0.499917 6.00004L2.02927 7.39495C2.46912 7.81303 3.03826 8.04006 3.6413 8.04006C3.67353 8.04006 3.70595 8.0394 3.73834 8.03807C4.37709 8.01241 4.96376 7.73596 5.39021 7.25971C5.39947 7.24936 5.40845 7.23873 5.4172 7.22791L9.21795 1.97871C9.48818 1.64234 9.43463 1.15062 9.0983 0.880351Z" fill="currentcolor"/></svg>