<svg viewBox="0 0 16 14" fill="none" xmlns="http://www.w3.org/2000/svg">
<path d="M15.7665 1.12221C15.4974 0.905958 15.104 0.948864 14.8878 1.21793L6.57161 11.5678C6.45873 11.6886 6.30617 11.7585 6.14045 11.7651C5.96986 11.772 5.80829 11.7111 5.68661 11.5954L1.05748 7.15821C0.808262 6.91937 0.412668 6.92777 0.173793 7.17693C-0.0650504 7.42612 -0.0566754 7.82174 0.192512 8.06062L4.82348 12.4996C5.17536 12.8341 5.63067 13.0157 6.11311 13.0157C6.13889 13.0157 6.16482 13.0152 6.19073 13.0141C6.70173 12.9936 7.17107 12.7724 7.51223 12.3914C7.51964 12.3831 7.52682 12.3746 7.53382 12.366L15.8622 2.0009C16.0784 1.7318 16.0355 1.33843 15.7665 1.12221Z" fill="currentColor"/>
</svg>
