<svg viewBox="0 0 15 16" fill="none" xmlns="http://www.w3.org/2000/svg">
<path fill-rule="evenodd" clip-rule="evenodd" d="M6.78857 1.24675C3.72102 1.24675 1.23428 3.75861 1.23428 6.85714C1.23428 9.95567 3.72102 12.4675 6.78857 12.4675C7.23572 12.4675 7.66975 12.4143 8.0851 12.314C8.4166 12.234 8.74956 12.4405 8.8288 12.7754C8.90803 13.1102 8.70353 13.4466 8.37203 13.5266C7.86339 13.6494 7.33307 13.7143 6.78857 13.7143C3.03934 13.7143 0 10.6442 0 6.85714C0 3.07004 3.03934 0 6.78857 0C10.5378 0 13.5771 3.07004 13.5771 6.85714C13.5771 8.7687 12.8022 10.4978 11.554 11.7408L14.2546 14.9747C14.4743 15.2378 14.4413 15.6311 14.1808 15.8531C13.9202 16.0751 13.5309 16.0417 13.3111 15.7785L10.2254 12.0835C10.1189 11.9559 10.0674 11.7906 10.0826 11.6244C10.0977 11.4582 10.1782 11.3051 10.306 11.1994C11.5505 10.1695 12.3428 8.60703 12.3428 6.85714C12.3428 3.75861 9.85611 1.24675 6.78857 1.24675Z" fill="currentColor" />
</svg>
