<svg viewBox="0 0 16 14" fill="none" xmlns="http://www.w3.org/2000/svg">
<path d="M8.03163 8.21869C8.70471 8.21869 9.25035 7.67305 9.25035 6.99997C9.25035 6.32689 8.70471 5.78124 8.03163 5.78124C7.35855 5.78124 6.81291 6.32689 6.81291 6.99997C6.81291 7.67305 7.35855 8.21869 8.03163 8.21869Z" fill="currentColor"/>
<path d="M8.03157 3.43742C6.06725 3.43742 4.46915 5.03552 4.46915 6.99984C4.46915 8.96417 6.06725 10.5623 8.03157 10.5623C9.99589 10.5623 11.594 8.96417 11.594 6.99984C11.594 5.03552 9.99589 3.43742 8.03157 3.43742ZM8.03157 9.31229C6.75647 9.31229 5.71912 8.27494 5.71912 6.99984C5.71912 5.72474 6.75647 4.6874 8.03157 4.6874C9.30667 4.6874 10.344 5.72474 10.344 6.99984C10.344 8.27494 9.30667 9.31229 8.03157 9.31229Z" fill="currentColor"/>
<path d="M15.5953 5.63571C15.2634 5.12614 14.3271 3.81798 12.803 2.67841C11.2581 1.52325 9.64683 0.9375 8.01404 0.9375C6.38356 0.9375 4.77093 1.52166 3.22093 2.67369C1.69005 3.81151 0.746198 5.11805 0.411447 5.62696C-0.137149 6.46099 -0.137149 7.53878 0.411447 8.37281C0.746198 8.88175 1.69005 10.1883 3.22093 11.3261C4.77093 12.4781 6.38353 13.0623 8.01404 13.0623C10.5242 13.0623 12.5427 11.6627 13.794 10.4886C14.0457 10.2524 14.0583 9.85688 13.8221 9.60516C13.5859 9.35341 13.1904 9.34085 12.9387 9.57703C11.8519 10.5968 10.1153 11.8124 8.01398 11.8124C4.97947 11.8124 2.46377 9.21856 1.45567 7.68593C1.18154 7.26918 1.18154 6.73068 1.45567 6.31393C2.46377 4.7813 4.97947 2.18754 8.01398 2.18754C11.0484 2.18754 13.5487 4.7838 14.5478 6.31787C14.8176 6.73221 14.8176 7.26765 14.5478 7.682C14.3594 7.97125 14.4412 8.3584 14.7305 8.54678C15.0197 8.73512 15.4069 8.65338 15.5953 8.36409C16.1349 7.53537 16.1349 6.4644 15.5953 5.63571Z" fill="currentColor"/>
</svg>
