<svg viewBox="0 0 8 8" fill="none" xmlns="http://www.w3.org/2000/svg"><path d="M7.75685 6.58283L5.17402 4L7.75685 1.41717C8.08105 1.09296 8.08105 0.567357 7.75685 0.243153C7.43264 -0.0810511 6.90704 -0.081051 6.58283 0.243153L4 2.82598L1.41717 0.243153C1.09296 -0.081051 0.567357 -0.0810511 0.243153 0.243153C-0.0810509 0.567357 -0.0810512 1.09296 0.243153 1.41717L2.82598 4L0.243153 6.58283C-0.0810509 6.90704 -0.0810509 7.43264 0.243153 7.75685C0.567357 8.08105 1.09296 8.08105 1.41717 7.75685L4 5.17402L6.58283 7.75685C6.90704 8.08105 7.43264 8.08105 7.75685 7.75685C8.08105 7.43264 8.08105 6.90704 7.75685 6.58283Z" fill="currentColor" /></svg>