<svg viewBox="0 0 16 16" fill="none" xmlns="http://www.w3.org/2000/svg">
<path d="M15.8169 14.9331L12.5233 11.6394C12.5183 11.6342 12.5132 11.6291 12.508 11.6241L4.3835 3.49963C4.378 3.49392 4.37244 3.48835 4.36675 3.48288L1.06743 0.183559C0.823332 -0.0605354 0.427642 -0.0605354 0.183579 0.183559C-0.0604846 0.427654 -0.0605159 0.823343 0.183579 1.06741L2.97697 3.86079C1.55312 4.98183 0.670393 6.23364 0.411424 6.62736C-0.137141 7.46137 -0.137141 8.53918 0.411424 9.37319C0.746175 9.8821 1.69002 11.1886 3.22087 12.3264C4.77085 13.4785 6.38348 14.0626 8.01396 14.0626C9.35787 14.0626 10.6929 13.6627 11.9891 12.873L14.9331 15.817C15.0552 15.939 15.2151 16.0001 15.375 16.0001C15.535 16.0001 15.695 15.939 15.817 15.817C16.061 15.5729 16.061 15.1772 15.8169 14.9331ZM5.98363 6.86743L6.84361 7.7274C6.75323 8.12262 6.86195 8.55415 7.1698 8.862C7.47764 9.16984 7.90914 9.27853 8.30439 9.18819L9.13343 10.0172C8.79133 10.2101 8.40374 10.3127 8.0003 10.3127C6.7252 10.3127 5.68788 9.27534 5.68788 8.00028C5.68785 7.59837 5.79073 7.21008 5.98363 6.86743ZM8.01392 12.8126C4.97944 12.8126 2.46378 10.2188 1.45568 8.68622C1.18155 8.2695 1.18155 7.73096 1.45568 7.31424C1.69384 6.95218 2.52409 5.7757 3.86766 4.75151L5.07804 5.96189C4.66232 6.55621 4.43788 7.26343 4.43788 8.00024C4.43788 9.96456 6.03595 11.5626 8.00027 11.5626C8.74005 11.5626 9.4454 11.3386 10.0389 10.9228L11.0754 11.9592C10.0625 12.5259 9.03552 12.8126 8.01392 12.8126Z" fill="currentColor"/>
<path d="M15.6049 6.65148C15.6017 6.64626 15.5984 6.64104 15.5951 6.63585C15.2632 6.12632 14.3269 4.81816 12.8028 3.67859C11.2579 2.52343 9.64668 1.93771 8.01393 1.93771C7.39246 1.93771 6.76249 2.02555 6.14158 2.19874C5.80908 2.29152 5.61476 2.63624 5.70748 2.96868C5.80023 3.30115 6.14483 3.49543 6.47742 3.40278C6.98899 3.26006 7.50596 3.18771 8.0139 3.18771C11.0355 3.18771 13.5275 5.76201 14.5349 7.29845C14.5381 7.30367 14.5414 7.30889 14.5448 7.31404C14.6791 7.51817 14.75 7.75536 14.75 8.00005C14.75 8.24473 14.6791 8.48192 14.5448 8.68605C14.2442 9.14308 13.8413 9.64443 13.4104 10.0977C13.1726 10.3479 13.1826 10.7435 13.4328 10.9813C13.5537 11.0963 13.7086 11.1533 13.8633 11.1533C14.0285 11.1533 14.1935 11.0882 14.3164 10.9589C14.9323 10.311 15.3485 9.73877 15.5891 9.37289C15.8579 8.9642 16 8.48948 16 7.99998C16 7.52023 15.8635 7.0546 15.6049 6.65148Z" fill="currentColor"/>
<path d="M11.4797 7.23322C11.186 5.8954 10.1334 4.83334 8.79811 4.52752C8.46167 4.45062 8.12645 4.66077 8.04938 4.99721C7.97235 5.33368 8.18264 5.66887 8.51907 5.74593C9.38539 5.94431 10.0683 6.63331 10.2588 7.50128C10.3229 7.79328 10.5815 7.99235 10.8687 7.99235C10.913 7.99235 10.9581 7.9876 11.0033 7.97766C11.3405 7.90366 11.5537 7.57035 11.4797 7.23322Z" fill="currentColor"/>
</svg>
