<svg viewBox="0 0 16 16" fill="none" xmlns="http://www.w3.org/2000/svg">
<path d="M15.375 11C15.7202 11 16 10.7202 16 10.375V3.75C16 2.3715 14.8785 1.25 13.5 1.25H12.6875V0.625C12.6875 0.279813 12.4077 0 12.0625 0C11.7173 0 11.4375 0.279813 11.4375 0.625V1.25H8.59375V0.625C8.59375 0.279813 8.31394 0 7.96875 0C7.62356 0 7.34375 0.279813 7.34375 0.625V1.25H4.53125V0.625C4.53125 0.279813 4.25144 0 3.90625 0C3.56106 0 3.28125 0.279813 3.28125 0.625V1.25H2.5C1.1215 1.25 0 2.3715 0 3.75V13.5C0 14.8785 1.1215 16 2.5 16H13.5C14.8785 16 16 14.8785 16 13.5C16 13.1548 15.7202 12.875 15.375 12.875C15.0298 12.875 14.75 13.1548 14.75 13.5C14.75 14.1892 14.1892 14.75 13.5 14.75H2.5C1.81075 14.75 1.25 14.1892 1.25 13.5V3.75C1.25 3.06075 1.81075 2.5 2.5 2.5H3.28125V3.125C3.28125 3.47019 3.56106 3.75 3.90625 3.75C4.25144 3.75 4.53125 3.47019 4.53125 3.125V2.5H7.34375V3.125C7.34375 3.47019 7.62356 3.75 7.96875 3.75C8.31394 3.75 8.59375 3.47019 8.59375 3.125V2.5H11.4375V3.125C11.4375 3.47019 11.7173 3.75 12.0625 3.75C12.4077 3.75 12.6875 3.47019 12.6875 3.125V2.5H13.5C14.1892 2.5 14.75 3.06075 14.75 3.75V10.375C14.75 10.7202 15.0298 11 15.375 11Z" fill="currentColor"/>
<path d="M3.90628 7.18749C4.25146 7.18749 4.53128 6.90767 4.53128 6.56249C4.53128 6.21732 4.25146 5.93749 3.90628 5.93749C3.5611 5.93749 3.28128 6.21732 3.28128 6.56249C3.28128 6.90767 3.5611 7.18749 3.90628 7.18749Z" fill="currentColor"/>
<path d="M9.34376 7.18749C9.68894 7.18749 9.96876 6.90767 9.96876 6.56249C9.96876 6.21732 9.68894 5.93749 9.34376 5.93749C8.99858 5.93749 8.71876 6.21732 8.71876 6.56249C8.71876 6.90767 8.99858 7.18749 9.34376 7.18749Z" fill="currentColor"/>
<path d="M12.0625 7.18749C12.4077 7.18749 12.6875 6.90767 12.6875 6.56249C12.6875 6.21732 12.4077 5.93749 12.0625 5.93749C11.7173 5.93749 11.4375 6.21732 11.4375 6.56249C11.4375 6.90767 11.7173 7.18749 12.0625 7.18749Z" fill="currentColor"/>
<path d="M3.90628 9.90619C4.25146 9.90619 4.53128 9.62637 4.53128 9.28119C4.53128 8.93601 4.25146 8.65619 3.90628 8.65619C3.5611 8.65619 3.28128 8.93601 3.28128 9.28119C3.28128 9.62637 3.5611 9.90619 3.90628 9.90619Z" fill="currentColor"/>
<path d="M3.90628 12.625C4.25146 12.625 4.53128 12.3452 4.53128 12C4.53128 11.6548 4.25146 11.375 3.90628 11.375C3.5611 11.375 3.28128 11.6548 3.28128 12C3.28128 12.3452 3.5611 12.625 3.90628 12.625Z" fill="currentColor"/>
<path d="M6.625 7.18749C6.97018 7.18749 7.25 6.90767 7.25 6.56249C7.25 6.21732 6.97018 5.93749 6.625 5.93749C6.27982 5.93749 6 6.21732 6 6.56249C6 6.90767 6.27982 7.18749 6.625 7.18749Z" fill="currentColor"/>
<path d="M6.625 9.90619C6.97018 9.90619 7.25 9.62637 7.25 9.28119C7.25 8.93601 6.97018 8.65619 6.625 8.65619C6.27982 8.65619 6 8.93601 6 9.28119C6 9.62637 6.27982 9.90619 6.625 9.90619Z" fill="currentColor"/>
<path d="M6.625 12.625C6.97018 12.625 7.25 12.3452 7.25 12C7.25 11.6548 6.97018 11.375 6.625 11.375C6.27982 11.375 6 11.6548 6 12C6 12.3452 6.27982 12.625 6.625 12.625Z" fill="currentColor"/>
<path d="M9.34376 9.90619C9.68894 9.90619 9.96876 9.62637 9.96876 9.28119C9.96876 8.93601 9.68894 8.65619 9.34376 8.65619C8.99858 8.65619 8.71876 8.93601 8.71876 9.28119C8.71876 9.62637 8.99858 9.90619 9.34376 9.90619Z" fill="currentColor"/>
<path d="M12.0625 9.90619C12.4077 9.90619 12.6875 9.62637 12.6875 9.28119C12.6875 8.93601 12.4077 8.65619 12.0625 8.65619C11.7173 8.65619 11.4375 8.93601 11.4375 9.28119C11.4375 9.62637 11.7173 9.90619 12.0625 9.90619Z" fill="currentColor"/>
<path d="M9.34376 12.625C9.68894 12.625 9.96876 12.3452 9.96876 12C9.96876 11.6548 9.68894 11.375 9.34376 11.375C8.99858 11.375 8.71876 11.6548 8.71876 12C8.71876 12.3452 8.99858 12.625 9.34376 12.625Z" fill="currentColor"/>
</svg>
