<svg width="178" height="188" viewBox="0 0 178 188" fill="none" xmlns="http://www.w3.org/2000/svg">
<rect width="178" height="188" rx="8" fill="#F3F3F3"/>
<path d="M38 23H26V25.9837H38V23Z" fill="#C7C7C7"/>
<path d="M76 28.9648H26V36.9214H76V28.9648Z" fill="#9D9D9F"/>
<path d="M152 55.8203H26V58.804H152V55.8203Z" fill="#C7C7C7"/>
<path d="M152 96.9258H26V99.9095H152V96.9258Z" fill="#C7C7C7"/>
<path d="M152 137.926H26V140.909H152V137.926Z" fill="#C7C7C7"/>
<path d="M152 48.8594H26V51.8431H152V48.8594Z" fill="#C7C7C7"/>
<path d="M152 89.9648H26V92.9485H152V89.9648Z" fill="#C7C7C7"/>
<path d="M152 130.965H26V133.949H152V130.965Z" fill="#C7C7C7"/>
<path d="M152 41.8945H26V44.8782H152V41.8945Z" fill="#C7C7C7"/>
<path d="M152 124H26V126.984H152V124Z" fill="#C7C7C7"/>
<path d="M152 62.7812H26V65.7649H152V62.7812Z" fill="#C7C7C7"/>
<path d="M152 103.887H26V106.87H152V103.887Z" fill="#C7C7C7"/>
<path d="M152 144.887H26V147.87H152V144.887Z" fill="#C7C7C7"/>
<path d="M152 69.7422H26V72.7259H152V69.7422Z" fill="#C7C7C7"/>
<path d="M152 110.848H26V113.831H152V110.848Z" fill="#C7C7C7"/>
<path d="M152 151.848H26V154.831H152V151.848Z" fill="#C7C7C7"/>
<path d="M102 76.707H26V79.6907H102V76.707Z" fill="#C7C7C7"/>
<path d="M102 158.812H26V161.796H102V158.812Z" fill="#C7C7C7"/>
</svg>
