<svg viewBox="0 0 40 40" fill="none" xmlns="http://www.w3.org/2000/svg">
<rect width="40" height="40" rx="8" fill="#EAEEF3"/>
<rect x="8" y="5" width="24" height="28" fill="#F9B400"/>
<path d="M10.3065 28V27.088C10.9145 27.072 11.4025 27.032 11.7705 26.968C12.1545 26.888 12.4505 26.752 12.6585 26.56C12.8665 26.352 13.0025 26.08 13.0665 25.744C13.1465 25.392 13.1865 24.928 13.1865 24.352V13.168C13.1865 12.608 13.1545 12.16 13.0905 11.824C13.0425 11.472 12.9305 11.2 12.7545 11.008C12.5945 10.8 12.3545 10.664 12.0345 10.6C11.7145 10.52 11.2985 10.464 10.7865 10.432V9.52H19.2105C20.6505 9.52 21.9785 9.76 23.1945 10.24C24.4265 10.72 25.4825 11.384 26.3625 12.232C27.2585 13.08 27.9545 14.088 28.4505 15.256C28.9465 16.424 29.1945 17.696 29.1945 19.072C29.1945 20.384 28.9625 21.592 28.4985 22.696C28.0345 23.784 27.3785 24.72 26.5305 25.504C25.6985 26.288 24.6985 26.904 23.5305 27.352C22.3625 27.784 21.0825 28 19.6905 28H10.3065ZM16.1145 10.696C15.8425 10.696 15.7065 10.832 15.7065 11.104V24.088C15.7065 25.912 16.8985 26.824 19.2825 26.824C21.4745 26.824 23.1545 26.176 24.3225 24.88C25.4905 23.568 26.0745 21.648 26.0745 19.12C26.0745 17.792 25.9145 16.608 25.5945 15.568C25.2745 14.528 24.8105 13.648 24.2025 12.928C23.6105 12.208 22.8905 11.656 22.0425 11.272C21.1945 10.888 20.2345 10.696 19.1625 10.696H16.1145Z" fill="#222955"/>
</svg>
