<svg viewBox="0 0 24 24" fill="none" xmlns="http://www.w3.org/2000/svg">
<path d="M21.4225 0.000212775C21.3741 -0.000912225 20.172 0.000212774 18.8014 0.531869C17.1839 1.15929 15.979 2.26132 15.2797 3.7422L11.1863 3.32613C10.0599 3.21185 8.95477 3.60556 8.15653 4.4052L1.10175 11.4334C-0.356627 12.8942 -0.356111 15.2706 1.10287 16.7309L7.25695 22.89C7.99608 23.6297 8.96578 24.0002 9.93234 24.0002C10.8853 24.0001 11.8353 23.6399 12.5576 22.9182C12.9237 22.5525 12.924 21.9592 12.5582 21.593C12.1925 21.2269 11.5991 21.2266 11.233 21.5924C10.5091 22.3156 9.32016 22.3035 8.58276 21.5653L2.42864 15.4062C1.69912 14.6761 1.69884 13.4879 2.42625 12.7593L9.48098 5.73106C9.88101 5.33032 10.4338 5.13349 10.9968 5.19059L15.7695 5.67565C15.7828 5.67729 15.796 5.67865 15.8092 5.67968L18.1268 5.91523L18.2723 7.34332C16.61 7.96053 15.0347 8.05793 14.9961 8.06018C14.4796 8.08774 14.083 8.52856 14.1102 9.04512C14.1366 9.54518 14.5503 9.93298 15.0452 9.93298C15.0618 9.93298 15.0785 9.93256 15.0952 9.93167C15.1704 9.92773 16.7017 9.84059 18.4676 9.26018L18.8511 13.0248C18.9083 13.5867 18.7125 14.1379 18.3139 14.5377L14.7121 18.0725C14.3427 18.435 14.3372 19.0283 14.6996 19.3976C15.0621 19.767 15.6554 19.7726 16.0248 19.4101L19.6297 15.8722C19.6317 15.8703 19.6337 15.8683 19.6357 15.8664C20.4367 15.0662 20.8302 13.9613 20.7155 12.8349L20.2736 8.4971C22.7143 7.19417 23.9963 5.17924 23.9948 2.62404V2.57717C23.9948 1.15615 22.8388 0.0001659 21.4225 0.000212775ZM22.1207 2.62446C22.1216 4.21399 21.4309 5.49073 20.0635 6.43484L19.9138 4.96535C19.8687 4.52285 19.5188 4.17303 19.0763 4.12803L17.3118 3.94868C17.8079 3.21659 18.5146 2.66454 19.424 2.30084C20.4709 1.88206 21.4077 1.87432 21.4179 1.87428C21.8055 1.87428 22.1207 2.18956 22.1207 2.57707V2.62446Z" fill="currentColor"/>
</svg>
