<svg viewBox="0 0 16 15" fill="none" xmlns="http://www.w3.org/2000/svg">
<path d="M2.5 1.25C2.5 1.94036 1.94036 2.5 1.25 2.5C0.559644 2.5 0 1.94036 0 1.25C0 0.559644 0.559644 0 1.25 0C1.94036 0 2.5 0.559644 2.5 1.25Z" fill="currentColor"/>
<path d="M2.5 13.25C2.5 13.9404 1.94036 14.5 1.25 14.5C0.559644 14.5 0 13.9404 0 13.25C0 12.5596 0.559644 12 1.25 12C1.94036 12 2.5 12.5596 2.5 13.25Z" fill="currentColor"/>
<path d="M2.5 7.25C2.5 7.94036 1.94036 8.5 1.25 8.5C0.559644 8.5 0 7.94036 0 7.25C0 6.55964 0.559644 6 1.25 6C1.94036 6 2.5 6.55964 2.5 7.25Z" fill="currentColor"/>
<path fill-rule="evenodd" clip-rule="evenodd" d="M4.75 1.25C4.75 0.559644 5.30964 0 6 0H14.5C15.1904 0 15.75 0.559644 15.75 1.25C15.75 1.94036 15.1904 2.5 14.5 2.5H6C5.30964 2.5 4.75 1.94036 4.75 1.25Z" fill="currentColor"/>
<path fill-rule="evenodd" clip-rule="evenodd" d="M4.75 13.25C4.75 12.5596 5.30964 12 6 12H14.5C15.1904 12 15.75 12.5596 15.75 13.25C15.75 13.9404 15.1904 14.5 14.5 14.5H6C5.30964 14.5 4.75 13.9404 4.75 13.25Z" fill="currentColor"/>
<path fill-rule="evenodd" clip-rule="evenodd" d="M4.75 7.25C4.75 6.55964 5.30964 6 6 6H14.5C15.1904 6 15.75 6.55964 15.75 7.25C15.75 7.94036 15.1904 8.5 14.5 8.5H6C5.30964 8.5 4.75 7.94036 4.75 7.25Z" fill="currentColor"/>
</svg>
