<svg viewBox="0 0 16 16" fill="none" xmlns="http://www.w3.org/2000/svg">
<path fill-rule="evenodd" clip-rule="evenodd" d="M2.34651 13.654C3.84652 15.1537 5.88022 15.9974 8.00155 16C9.46159 16.0027 10.8945 15.6055 12.1447 14.8515C12.3149 14.7459 12.4369 14.5779 12.4846 14.3833C12.5323 14.1888 12.5019 13.9834 12.3999 13.811C12.2942 13.6382 12.1243 13.5143 11.9274 13.4664C11.7305 13.4186 11.5227 13.4507 11.3494 13.5558C9.99566 14.3801 8.38543 14.6763 6.82688 14.3878C5.26834 14.0993 3.87094 13.2463 2.90212 11.992C1.93331 10.7378 1.46112 9.17035 1.57592 7.58977C1.69073 6.00919 2.38446 4.52645 3.52436 3.4253C4.66426 2.32416 6.17026 1.68195 7.75415 1.62159C9.33804 1.56122 10.8886 2.08695 12.109 3.09814C13.3294 4.10933 14.1341 5.53497 14.3689 7.10223C14.6037 8.66949 14.2522 10.2683 13.3817 11.5926C13.3124 11.6751 13.2612 11.7712 13.2316 11.8748C13.202 11.9783 13.1945 12.087 13.2098 12.1936C13.225 12.3002 13.2626 12.4024 13.32 12.4935C13.3774 12.5847 13.4534 12.6626 13.5431 12.7224C13.6327 12.7821 13.7339 12.8223 13.8402 12.8403C13.9464 12.8582 14.0552 12.8536 14.1595 12.8266C14.2638 12.7997 14.3612 12.751 14.4454 12.6838C14.5296 12.6167 14.5987 12.5325 14.6482 12.4368C15.4543 11.2335 15.9182 9.83379 15.9902 8.38731C16.0622 6.94082 15.7396 5.50197 15.0569 4.22461C14.3743 2.94725 13.3572 1.87942 12.1145 1.1353C10.8717 0.391184 9.4501 -0.00123589 8.00155 2.92401e-06C5.88022 0.00260052 3.84652 0.846288 2.34651 2.34602C0.846505 3.84574 0.00265911 5.87906 6.10352e-05 7.99999C0.00265911 10.1209 0.846505 12.1542 2.34651 13.654Z" fill="currentColor"/>
<path fill-rule="evenodd" clip-rule="evenodd" d="M5.08464 11.1853C5.23062 11.2821 5.40137 11.3349 5.57652 11.3374C5.81434 11.3293 6.04111 11.2351 6.21468 11.0723L8.62985 8.63799C8.79841 8.46824 8.89359 8.23914 8.89493 7.99995V3.09198C8.90818 2.96481 8.89455 2.83628 8.85495 2.71471C8.81534 2.59315 8.75064 2.48125 8.66502 2.38628C8.57941 2.2913 8.47479 2.21537 8.35796 2.1634C8.24112 2.11142 8.11467 2.08456 7.98679 2.08456C7.85891 2.08456 7.73246 2.11142 7.61562 2.1634C7.49879 2.21537 7.39417 2.2913 7.30856 2.38628C7.22294 2.48125 7.15824 2.59315 7.11863 2.71471C7.07903 2.83628 7.0654 2.96481 7.07864 3.09198V7.65639L4.90892 9.8159C4.79212 9.94643 4.71534 10.1078 4.68774 10.2807C4.66014 10.4537 4.68288 10.6309 4.75326 10.7913C4.82363 10.9517 4.93867 11.0885 5.08464 11.1853Z" fill="currentColor"/>
</svg>
