<svg viewBox="0 0 51 51" fill="none" xmlns="http://www.w3.org/2000/svg">
<path d="M50.8717 43.7008C50.6474 42.6237 49.5927 41.9324 48.5152 42.1566C47.438 42.3808 46.7466 43.4359 46.971 44.5129C47.1001 45.1334 46.9462 45.7693 46.549 46.258C46.3189 46.541 45.8058 47.0156 44.9554 47.0156H6.04653C5.19607 47.0156 4.68298 46.5409 4.45288 46.258C4.05554 45.7694 3.90174 45.1334 4.03094 44.5129C6.09843 34.5824 14.8576 27.3282 24.9728 27.0836C25.148 27.0904 25.324 27.0938 25.5009 27.0938C25.6784 27.0938 25.8552 27.0903 26.0311 27.0835C33.1563 27.2544 39.7421 30.8634 43.7304 36.8113C44.3431 37.7253 45.5805 37.9693 46.4945 37.3566C47.4083 36.7439 47.6525 35.5064 47.0397 34.5925C43.7708 29.7173 39.0241 26.1722 33.6119 24.3909C36.91 21.9176 39.0478 17.9772 39.0478 13.5469C39.0478 6.07717 32.9708 0 25.5009 0C18.0311 0 11.9541 6.07717 11.9541 13.5469C11.9541 17.9799 14.0945 21.9224 17.396 24.3954C14.3711 25.3913 11.5327 26.941 9.04846 28.9843C4.49312 32.7313 1.32584 37.9577 0.130231 43.7008C-0.244499 45.5005 0.20444 47.3488 1.3617 48.7718C2.51329 50.1879 4.22089 51 6.04653 51H44.9553C46.781 51 48.4886 50.1879 49.6401 48.7718C50.7975 47.3488 51.2464 45.5005 50.8717 43.7008ZM15.9384 13.5469C15.9384 8.27405 20.2281 3.98438 25.5009 3.98438C30.7738 3.98438 35.0634 8.27405 35.0634 13.5469C35.0634 18.6573 31.0337 22.8443 25.9849 23.0972C25.8239 23.0942 25.6625 23.0927 25.5009 23.0927C25.3402 23.0927 25.1794 23.0943 25.0188 23.0973C19.9691 22.8454 15.9384 18.658 15.9384 13.5469Z" fill="currentColor"/>
</svg>
