<svg viewBox="0 0 16 16" fill="none" xmlns="http://www.w3.org/2000/svg">
<path fill-rule="evenodd" clip-rule="evenodd" d="M2.12049 8.00005C2.12049 4.75286 4.75286 2.12049 8.00005 2.12049C11.2472 2.12049 13.8796 4.75286 13.8796 8.00005C13.8796 11.2472 11.2472 13.8796 8.00005 13.8796C4.75286 13.8796 2.12049 11.2472 2.12049 8.00005ZM8.00005 0C3.58174 0 0 3.58174 0 8.00005C0 12.4184 3.58174 16.0001 8.00005 16.0001C12.4184 16.0001 16.0001 12.4184 16.0001 8.00005C16.0001 3.58174 12.4184 0 8.00005 0ZM7.80728 7.51805C7.22172 7.51805 6.74704 7.99274 6.74704 8.57829V10.5061C6.74704 11.0916 7.22172 11.5663 7.80728 11.5663C8.39284 11.5663 8.86753 11.0916 8.86753 10.5061V8.57829C8.86753 7.99273 8.39284 7.51805 7.80728 7.51805ZM7.80728 4.43381C7.22172 4.43381 6.74704 4.9085 6.74704 5.49406C6.74704 6.07961 7.22172 6.5543 7.80728 6.5543C8.39284 6.5543 8.86753 6.07962 8.86753 5.49406C8.86753 4.9085 8.39284 4.43381 7.80728 4.43381ZM6.31044 1.86538C3.61718 2.60549 1.63856 5.0717 1.63856 8.00005C1.63856 11.5134 4.4867 14.3615 8.00005 14.3615C8.54901 14.3615 9.08173 14.292 9.58988 14.1613C9.0817 14.292 8.54895 14.3616 7.99995 14.3616C4.4866 14.3616 1.63847 11.5134 1.63847 8.00007C1.63847 5.07169 3.61713 2.60545 6.31044 1.86538ZM5.98089 0.756168C6.62341 0.577454 7.30057 0.481931 8.00005 0.481931C12.1522 0.481931 15.5182 3.84791 15.5182 8.00005C15.5182 11.3737 13.2961 14.2283 10.2357 15.1802C13.296 14.2283 15.5181 11.3737 15.5181 8.00007C15.5181 3.84793 12.1521 0.481957 7.99995 0.481957C7.30051 0.481957 6.62338 0.577471 5.98089 0.756168ZM7.69073 8.01173C7.72835 8.00403 7.7673 8 7.80719 8C8.12658 8 8.3855 8.25892 8.3855 8.57832V10.5167C8.38557 10.5131 8.3856 10.5096 8.3856 10.5061V8.57829C8.3856 8.2589 8.12668 7.99998 7.80728 7.99998C7.76736 7.99998 7.72838 8.00402 7.69073 8.01173ZM7.65235 4.93673C7.70166 4.92305 7.75362 4.91574 7.80728 4.91574C8.12668 4.91574 8.3856 5.17466 8.3856 5.49406C8.3856 5.75982 8.20633 5.98372 7.96212 6.05141C8.20628 5.98368 8.3855 5.75981 8.3855 5.49408C8.3855 5.17469 8.12658 4.91577 7.80719 4.91577C7.75356 4.91577 7.70163 4.92307 7.65235 4.93673Z" fill="currentColor"/>
</svg>
