<svg viewBox="0 0 24 24" fill="none" xmlns="http://www.w3.org/2000/svg">
<path d="M23.0625 13.6641C23.5803 13.6641 24 13.2444 24 12.7266V6.58597C24 4.51822 22.3178 2.83597 20.25 2.83597H3.75003C1.68228 2.83597 3.05176e-05 4.51822 3.05176e-05 6.58597V17.4141C3.05176e-05 19.4818 1.68228 21.1641 3.75003 21.1641H20.25C22.3178 21.1641 24 19.4818 24 17.4141C24 16.8963 23.5803 16.4766 23.0625 16.4766C22.5448 16.4766 22.125 16.8963 22.125 17.4141C22.125 18.448 21.2839 19.2891 20.25 19.2891H3.75003C2.71616 19.2891 1.87503 18.448 1.87503 17.4141V6.78462L10.0198 11.8492C10.6305 12.229 11.3153 12.4189 12 12.4189C12.6848 12.4189 13.3695 12.229 13.9803 11.8492L22.125 6.78462V12.7266C22.125 13.2444 22.5448 13.6641 23.0625 13.6641ZM12.9901 10.2569C12.3794 10.6367 11.6206 10.6367 11.0099 10.2569L2.65733 5.06309C2.9652 4.84156 3.34264 4.71097 3.75003 4.71097H20.25C20.6574 4.71097 21.0349 4.84161 21.3427 5.06314L12.9901 10.2569Z" fill="currentColor"/>
</svg>
