<svg width="14" height="14" viewBox="0 0 14 14" fill="none" xmlns="http://www.w3.org/2000/svg">
<path fill-rule="evenodd" clip-rule="evenodd" d="M0.599854 1.19121C0.599854 0.864476 0.86472 0.599609 1.19145 0.599609H5.49397C5.8207 0.599609 6.08557 0.864476 6.08557 1.19121V5.49373C6.08557 5.82046 5.8207 6.08532 5.49397 6.08532H1.19145C0.86472 6.08532 0.599854 5.82046 0.599854 5.49373V1.19121ZM1.78305 1.7828V4.90213H4.90237V1.7828H1.78305Z" fill="currentColor"/>
<path fill-rule="evenodd" clip-rule="evenodd" d="M0.599854 8.50549C0.599854 8.17876 0.86472 7.9139 1.19145 7.9139H5.49397C5.8207 7.9139 6.08557 8.17876 6.08557 8.50549V12.808C6.08557 13.1347 5.8207 13.3996 5.49397 13.3996H1.19145C0.86472 13.3996 0.599854 13.1347 0.599854 12.808V8.50549ZM1.78305 9.09709V12.2164H4.90237V9.09709H1.78305Z" fill="currentColor"/>
<path fill-rule="evenodd" clip-rule="evenodd" d="M7.91414 1.19121C7.91414 0.864476 8.17901 0.599609 8.50574 0.599609H12.8083C13.135 0.599609 13.3999 0.864476 13.3999 1.19121V5.49373C13.3999 5.82046 13.135 6.08532 12.8083 6.08532H8.50574C8.17901 6.08532 7.91414 5.82046 7.91414 5.49373V1.19121ZM9.09733 1.7828V4.90213H12.2167V1.7828H9.09733Z" fill="currentColor"/>
<path fill-rule="evenodd" clip-rule="evenodd" d="M7.91414 8.50549C7.91414 8.17876 8.17901 7.9139 8.50574 7.9139H12.8083C13.135 7.9139 13.3999 8.17876 13.3999 8.50549V12.808C13.3999 13.1347 13.135 13.3996 12.8083 13.3996H8.50574C8.17901 13.3996 7.91414 13.1347 7.91414 12.808V8.50549ZM9.09733 9.09709V12.2164H12.2167V9.09709H9.09733Z" fill="currentColor"/>
</svg>
