<svg viewBox="0 0 16 16" fill="none" xmlns="http://www.w3.org/2000/svg">
<path d="M15 1.00001C14.3759 0.378358 13.5309 0.0293274 12.65 0.0293274C11.7691 0.0293274 10.9241 0.378358 10.3 1.00001L1.61003 9.70001C1.51232 9.79763 1.44019 9.91785 1.40003 10.05L3.31886e-05 15C-0.0392264 15.1384 -0.0404416 15.2848 -0.00348462 15.4239C0.0334724 15.5629 0.107234 15.6894 0.210033 15.79C0.288869 15.8634 0.381875 15.9199 0.483335 15.956C0.584796 15.9921 0.692569 16.0071 0.800033 16C0.866424 16.0086 0.933643 16.0086 1.00003 16L6.00003 14.57C6.12496 14.5236 6.2367 14.4474 6.32556 14.3481C6.41443 14.2488 6.47774 14.1293 6.51003 14C6.54449 13.8645 6.54325 13.7223 6.50645 13.5873C6.46965 13.4524 6.39854 13.3293 6.30003 13.23L3.30003 10.23L10.3 3.23001L12.72 5.65001L8.15003 10.17C8.00042 10.32 7.9164 10.5232 7.9164 10.735C7.9164 10.9468 8.00042 11.15 8.15003 11.3C8.22291 11.3777 8.31132 11.4393 8.40952 11.4806C8.50771 11.522 8.61351 11.5422 8.72003 11.54C8.93287 11.5412 9.13763 11.4586 9.29003 11.31L15 5.66001C15.612 5.03887 15.955 4.20194 15.955 3.33001C15.955 2.45807 15.612 1.62114 15 1.00001ZM14.36 3.35001C14.3573 3.80305 14.1779 4.23715 13.86 4.56001L11.43 2.15001C11.7569 1.84055 12.1899 1.66809 12.64 1.66809C13.0902 1.66809 13.5232 1.84055 13.85 2.15001C14.1766 2.45403 14.3705 2.87425 14.39 3.32001L14.36 3.35001ZM4.19003 13.4L2.00003 14L2.63003 11.76L4.19003 13.4Z" fill="currentColor"/>
</svg>
