<svg viewBox="0 0 25 24" fill="none" xmlns="http://www.w3.org/2000/svg">
<path d="M23.9588 15.62C23.9268 15.4901 23.8486 15.3764 23.7388 15.3C23.6545 15.2444 23.5555 15.2151 23.4545 15.2158C23.3535 15.2165 23.255 15.2472 23.1714 15.3039C23.0879 15.3607 23.023 15.441 22.9852 15.5347C22.9473 15.6283 22.9382 15.7311 22.9588 15.83C22.9677 15.8697 22.9678 15.9108 22.9591 15.9505C22.9505 15.9902 22.9333 16.0276 22.9088 16.06C22.884 16.0918 22.8521 16.1174 22.8156 16.1348C22.7792 16.1522 22.7392 16.1608 22.6988 16.16H18.4488C18.3147 16.0864 18.1592 16.0616 18.0088 16.09C17.8345 16.1284 17.6822 16.2338 17.5849 16.3835C17.4877 16.5332 17.4531 16.7151 17.4888 16.89C17.5005 16.9472 17.4995 17.0062 17.486 17.0629C17.4725 17.1196 17.4467 17.1727 17.4105 17.2185C17.3743 17.2642 17.3286 17.3015 17.2764 17.3276C17.2243 17.3538 17.1671 17.3683 17.1088 17.37H6.86881C6.81038 17.3712 6.75254 17.3582 6.70027 17.3321C6.648 17.3059 6.60288 17.2675 6.56881 17.22C6.52935 17.1758 6.50141 17.1226 6.48746 17.065C6.4735 17.0075 6.47397 16.9473 6.48881 16.89C6.75256 15.6523 7.42421 14.539 8.3961 13.7284C9.36799 12.9179 10.5838 12.4572 11.8488 12.42H12.1288C13.028 12.4422 13.9088 12.68 14.6971 13.1133C15.4854 13.5466 16.1581 14.1627 16.6588 14.91C16.7604 15.0574 16.914 15.161 17.0888 15.2C17.2653 15.2334 17.4479 15.1976 17.5988 15.1C17.6714 15.0502 17.7336 14.9867 17.7816 14.9129C17.8296 14.8391 17.8627 14.7566 17.8788 14.67C17.8975 14.5827 17.8983 14.4924 17.8811 14.4048C17.8639 14.3171 17.8291 14.2338 17.7788 14.16C17.5279 13.8004 17.2433 13.4655 16.9288 13.16C17.5077 12.8048 18.1699 12.6082 18.8488 12.59H19.0288C19.6833 12.6071 20.3242 12.7802 20.8982 13.0951C21.4722 13.4099 21.9627 13.8573 22.3288 14.4C22.4052 14.5098 22.5189 14.588 22.6488 14.62H22.7488C22.8494 14.6207 22.9475 14.5892 23.0288 14.53C23.1386 14.4536 23.2168 14.3399 23.2488 14.21C23.2615 14.1445 23.2609 14.0772 23.2472 14.0119C23.2335 13.9467 23.2068 13.8848 23.1688 13.83C22.5756 12.9506 21.7277 12.2737 20.7388 11.89C21.0814 11.5864 21.3423 11.2016 21.4972 10.7709C21.6522 10.3401 21.6964 9.87735 21.6257 9.42508C21.555 8.9728 21.3718 8.54556 21.0928 8.18265C20.8137 7.81974 20.448 7.53281 20.029 7.34827C19.6101 7.16372 19.1515 7.08748 18.6954 7.12656C18.2393 7.16563 17.8004 7.31877 17.419 7.57188C17.0375 7.82499 16.7259 8.16995 16.5127 8.57503C16.2995 8.98011 16.1915 9.4323 16.1988 9.89001C16.2024 10.2694 16.2863 10.6437 16.4448 10.9884C16.6034 11.3331 16.8331 11.6404 17.1188 11.89C16.768 12.0397 16.433 12.2239 16.1188 12.44C15.6002 12.0549 15.0317 11.742 14.4288 11.51C14.8984 11.103 15.2582 10.5845 15.4752 10.0022C15.6922 9.41987 15.7595 8.79237 15.6709 8.17729C15.5822 7.5622 15.3405 6.97925 14.9678 6.48192C14.5952 5.9846 14.1036 5.58886 13.5382 5.33101C12.9727 5.07316 12.3516 4.96148 11.7318 5.00621C11.1119 5.05094 10.5133 5.25065 9.99074 5.58701C9.46819 5.92337 9.03852 6.3856 8.74114 6.93127C8.44377 7.47694 8.28823 8.08857 8.28881 8.71001C8.28531 9.24179 8.39805 9.76791 8.61915 10.2516C8.84024 10.7352 9.16436 11.1647 9.56881 11.51C8.96906 11.742 8.40384 12.0549 7.88881 12.44C7.57756 12.2191 7.24204 12.0346 6.88881 11.89C7.2336 11.5875 7.4966 11.203 7.65354 10.772C7.81048 10.341 7.85629 9.87737 7.78675 9.42398C7.7172 8.97059 7.53453 8.54204 7.25562 8.17789C6.97671 7.81374 6.61054 7.52574 6.19093 7.34048C5.77131 7.15522 5.31179 7.07868 4.85478 7.11792C4.39777 7.15715 3.95802 7.31091 3.57612 7.56498C3.19423 7.81906 2.88251 8.16526 2.66975 8.57162C2.45699 8.97798 2.35005 9.4314 2.35881 9.89001C2.36244 10.2694 2.44629 10.6437 2.60484 10.9884C2.7634 11.3331 2.99309 11.6404 3.27881 11.89C2.75814 12.0892 2.27217 12.3693 1.83881 12.72C0.921665 13.4513 0.282844 14.4748 0.0288071 15.62C-0.0116467 15.8075 -0.00946809 16.0016 0.0351818 16.1881C0.0798318 16.3746 0.165812 16.5486 0.28677 16.6974C0.407728 16.8462 0.560573 16.966 0.734012 17.0478C0.907451 17.1295 1.09705 17.1713 1.28881 17.17H5.15881C5.19006 17.5001 5.31887 17.8134 5.52881 18.07C5.68968 18.2706 5.89371 18.4323 6.12571 18.5431C6.35771 18.6539 6.61171 18.7109 6.86881 18.71H17.1088C17.5354 18.7123 17.9477 18.556 18.2656 18.2715C18.5834 17.9869 18.7842 17.5943 18.8288 17.17H22.6988C22.8902 17.1728 23.0798 17.1319 23.2531 17.0505C23.4263 16.969 23.5788 16.8492 23.6988 16.7C23.8205 16.5511 23.9071 16.3767 23.9521 16.1897C23.9971 16.0027 23.9994 15.808 23.9588 15.62ZM5.15881 12.62C5.39431 12.6219 5.62895 12.6487 5.85881 12.7C5.9366 12.7154 6.0134 12.7355 6.08881 12.76L6.52881 12.89L6.78881 13C6.89265 13.0419 6.99297 13.0921 7.08881 13.15C6.24544 13.9788 5.63204 15.0126 5.30881 16.15H1.30881C1.26832 16.1516 1.22805 16.1433 1.19147 16.1259C1.15489 16.1085 1.12309 16.0824 1.09881 16.05C1.06958 16.0222 1.04785 15.9874 1.03562 15.949C1.02338 15.9105 1.02104 15.8696 1.02881 15.83C1.22103 14.9298 1.70989 14.1202 2.41704 13.5309C3.12419 12.9416 4.00869 12.6067 4.92881 12.58L5.15881 12.62ZM5.02881 8.13001C5.46322 8.14974 5.87404 8.33329 6.17858 8.64372C6.48312 8.95415 6.65877 9.36841 6.67017 9.80312C6.68158 10.2378 6.5279 10.6607 6.24006 10.9867C5.95222 11.3127 5.55159 11.5175 5.11881 11.56H4.96881H4.72881H4.63881L4.45881 11.5H4.32881C4.29218 11.4861 4.25831 11.4658 4.22881 11.44L4.02881 11.24L3.80881 11C3.7369 10.9236 3.67322 10.8398 3.61881 10.75C3.45777 10.494 3.36753 10.1998 3.35729 9.89749C3.34705 9.59519 3.41717 9.29558 3.56052 9.02923C3.70386 8.76288 3.91528 8.53931 4.17323 8.38134C4.43117 8.22337 4.72641 8.13664 5.02881 8.13001ZM12.0288 6.35001C12.6329 6.36898 13.207 6.61806 13.6335 7.04629C14.0601 7.47452 14.3069 8.04953 14.3235 8.65373C14.3401 9.25792 14.1252 9.84563 13.7229 10.2966C13.3205 10.7476 12.761 11.0279 12.1588 11.08H11.9088C11.307 11.0286 10.7474 10.7494 10.3446 10.2993C9.94171 9.84924 9.72589 9.26234 9.74121 8.65849C9.75653 8.05465 10.0018 7.47945 10.427 7.05039C10.8522 6.62134 11.4251 6.37082 12.0288 6.35001ZM19.0288 11.56H18.9388C18.8656 11.5655 18.792 11.5655 18.7188 11.56H18.6088H18.4688C18.4102 11.5461 18.3532 11.526 18.2988 11.5H18.2388C17.8712 11.3091 17.5855 10.9913 17.4345 10.6056C17.2836 10.2199 17.2778 9.79248 17.4182 9.40282C17.5586 9.01315 17.8357 8.68769 18.1979 8.48689C18.5602 8.28608 18.983 8.22358 19.3879 8.31099C19.7927 8.3984 20.1521 8.62979 20.3992 8.96217C20.6463 9.29454 20.7644 9.70532 20.7316 10.1182C20.6987 10.5311 20.5171 10.918 20.2205 11.2071C19.9239 11.4962 19.5324 11.6678 19.1188 11.69L19.0288 11.56Z" fill="currentColor"/>
</svg>
