<svg xmlns="http://www.w3.org/2000/svg" viewBox="0 0 24 24">
<path d="M23.46,15.62a.55.55,0,0,0-.22-.32.49.49,0,0,0-.29-.08.54.54,0,0,0-.28.08.5.5,0,0,0-.18.23.52.52,0,0,0,0,.3.24.24,0,0,1,0,.12.37.37,0,0,1-.05.11.28.28,0,0,1-.09.07.27.27,0,0,1-.12,0H18a.68.68,0,0,0-.44-.07.69.69,0,0,0-.43.29.7.7,0,0,0-.09.51.38.38,0,0,1-.08.33.69.69,0,0,1-.13.11.53.53,0,0,1-.17,0H6.37a.33.33,0,0,1-.17,0,.28.28,0,0,1-.13-.11A.31.31,0,0,1,6,17.07a.28.28,0,0,1,0-.18A5.58,5.58,0,0,1,7.9,13.73a5.65,5.65,0,0,1,3.45-1.31h.28a5.59,5.59,0,0,1,4.53,2.49.69.69,0,0,0,.43.29.7.7,0,0,0,.51-.1.66.66,0,0,0,.18-.19.64.64,0,0,0,.1-.24.61.61,0,0,0,0-.27.72.72,0,0,0-.1-.24,7.37,7.37,0,0,0-.85-1,3.84,3.84,0,0,1,1.92-.57h.18a4.14,4.14,0,0,1,3.3,1.81.55.55,0,0,0,.32.22h.1a.47.47,0,0,0,.28-.09.55.55,0,0,0,.22-.32.67.67,0,0,0,0-.2.58.58,0,0,0-.08-.18,5.15,5.15,0,0,0-2.43-1.94,2.73,2.73,0,0,0,.89-2.46,2.75,2.75,0,0,0-.54-1.25,2.69,2.69,0,0,0-1.06-.83,2.66,2.66,0,0,0-1.33-.22A2.71,2.71,0,0,0,16,8.58a2.69,2.69,0,0,0-.31,1.31,2.79,2.79,0,0,0,.24,1.1,2.71,2.71,0,0,0,.68.9,5.4,5.4,0,0,0-1,.55,7,7,0,0,0-1.69-.93,3.72,3.72,0,0,0,.54-5A3.72,3.72,0,0,0,13,5.33,3.65,3.65,0,0,0,11.23,5a3.61,3.61,0,0,0-1.74.58,3.73,3.73,0,0,0-1.37,4.66,3.56,3.56,0,0,0,1,1.26,6.73,6.73,0,0,0-1.68.93,4.87,4.87,0,0,0-1-.55,2.78,2.78,0,0,0,.9-2.47,2.81,2.81,0,0,0-.53-1.24,2.75,2.75,0,0,0-1.07-.84,2.79,2.79,0,0,0-1.34-.22A2.72,2.72,0,0,0,1.86,9.89,2.79,2.79,0,0,0,2.1,11a2.71,2.71,0,0,0,.68.9,5.3,5.3,0,0,0-1.44.83,5.07,5.07,0,0,0-1.81,2.9,1.22,1.22,0,0,0,0,.57,1.28,1.28,0,0,0,.25.51,1.24,1.24,0,0,0,.44.35,1.38,1.38,0,0,0,.56.12H4.66a1.67,1.67,0,0,0,.37.9,1.63,1.63,0,0,0,.6.47,1.71,1.71,0,0,0,.74.17H16.61a1.71,1.71,0,0,0,1.16-.44,1.78,1.78,0,0,0,.56-1.1H22.2a1.3,1.3,0,0,0,.55-.12,1.19,1.19,0,0,0,.45-.35,1.31,1.31,0,0,0,.26-1.08Zm-18.8-3a3.34,3.34,0,0,1,.7.08l.23.06.44.13.26.11a2.1,2.1,0,0,1,.3.15,6.81,6.81,0,0,0-1.78,3h-4l-.12,0a.24.24,0,0,1-.09-.08A.21.21,0,0,1,.54,16a.17.17,0,0,1,0-.12,4.11,4.11,0,0,1,3.9-3.25ZM4.53,8.13a1.72,1.72,0,0,1,.09,3.43H4.14L4,11.5H3.83a.21.21,0,0,1-.1-.06l-.2-.2L3.31,11a1.5,1.5,0,0,1-.19-.25,1.73,1.73,0,0,1-.26-.85A1.77,1.77,0,0,1,3.06,9a1.73,1.73,0,0,1,.61-.65A1.75,1.75,0,0,1,4.53,8.13Zm7-1.78a2.35,2.35,0,0,1,1.6.7,2.3,2.3,0,0,1,.69,1.6,2.33,2.33,0,0,1-.6,1.65,2.35,2.35,0,0,1-1.56.78h-.25A2.36,2.36,0,0,1,9.24,8.66a2.38,2.38,0,0,1,2.29-2.31Zm7,5.21H18a.49.49,0,0,1-.17-.06h-.06a1.76,1.76,0,0,1-.81-.89,1.74,1.74,0,0,1,0-1.21,1.72,1.72,0,0,1,2-1.09,1.75,1.75,0,0,1,1,.65,1.72,1.72,0,0,1,.33,1.16,1.7,1.7,0,0,1-1.61,1.57Z" fill="currentColor" />
</svg>