<svg viewBox="0 0 16 16" fill="none" xmlns="http://www.w3.org/2000/svg">
<path fill-rule="evenodd" clip-rule="evenodd" d="M12.2507 0C12.7684 0 13.188 0.40752 13.188 0.910222L13.188 12.8923L14.3999 11.7155C14.7659 11.36 15.3594 11.36 15.7255 11.7155C16.0915 12.071 16.0915 12.6473 15.7255 13.0027L12.9135 15.7334C12.5474 16.0889 11.954 16.0889 11.5879 15.7334L8.77593 13.0027C8.40988 12.6473 8.40988 12.071 8.77593 11.7155C9.14198 11.36 9.73546 11.36 10.1015 11.7155L11.3134 12.8923L11.3134 0.910222C11.3134 0.40752 11.733 5.42535e-08 12.2507 0Z" fill="currentColor"/>
<path d="M4.72656 7.28178C4.34075 7.28178 4.00344 7.02917 3.90539 6.66682L3.77522 6.18578H1.81864L1.68494 6.66651C1.58397 7.02958 1.24482 7.28178 0.857547 7.28178C0.289598 7.28178 -0.121273 6.75505 0.0325345 6.22414L1.49867 1.16328C1.61239 0.770748 1.98106 0.499555 2.40097 0.499555H3.15411C3.57289 0.499555 3.94085 0.769306 4.05558 1.16041L5.54313 6.23139C5.69759 6.75796 5.29037 7.28178 4.72656 7.28178ZM3.43745 4.88978L3.17795 3.92978C3.11753 3.71644 3.04339 3.44044 2.95552 3.10178C2.87039 2.76311 2.81409 2.52044 2.78663 2.37378C2.76192 2.50978 2.71249 2.73378 2.63835 3.04578C2.56695 3.35778 2.4063 3.97244 2.15641 4.88978H3.43745Z" fill="currentColor"/>
<path d="M5.65649 15.3049C5.65649 15.6888 5.33601 16 4.94067 16H0.848496C0.397853 16 0.0325345 15.6452 0.0325345 15.2076C0.0325345 15.032 0.0926559 14.8613 0.203447 14.7224L3.15805 11.0187H0.822416C0.427081 11.0187 0.106599 10.7075 0.106599 10.3236C0.106599 9.93966 0.427081 9.62845 0.822416 9.62845H4.76469C5.21359 9.62845 5.57749 9.98183 5.57749 10.4177C5.57749 10.5926 5.5177 10.7625 5.40751 10.9008L2.45197 14.6098H4.94067C5.33601 14.6098 5.65649 14.921 5.65649 15.3049Z" fill="currentColor"/>
</svg>