<svg viewBox="0 0 16 16" fill="none" xmlns="http://www.w3.org/2000/svg">
<path d="M15.26 0.0734874C15.1854 0.0326406 15.1017 0.0112305 15.0167 0.0112305C14.9316 0.0112305 14.8479 0.0326406 14.7733 0.0734874L6.45333 4.07349C6.36969 4.11447 6.29916 4.178 6.24968 4.25692C6.20021 4.33584 6.17377 4.42701 6.17333 4.52015V7.66015L0.84 9.54682C0.744116 9.57911 0.660284 9.63973 0.599579 9.72067C0.538874 9.80161 0.504152 9.89906 0.5 10.0002V15.5002C0.501727 15.6322 0.554959 15.7584 0.648356 15.8518C0.741752 15.9452 0.867929 15.9984 1 16.0002H10C10.1321 15.9984 10.2582 15.9452 10.3516 15.8518C10.445 15.7584 10.4983 15.6322 10.5 15.5002V14.0002H11.5V15.5002C11.5017 15.6322 11.555 15.7584 11.6484 15.8518C11.7418 15.9452 11.8679 15.9984 12 16.0002H15C15.1321 15.9984 15.2582 15.9452 15.3516 15.8518C15.445 15.7584 15.4983 15.6322 15.5 15.5002V0.500154C15.5006 0.414301 15.4787 0.329782 15.4367 0.254952C15.3946 0.180123 15.3337 0.117573 15.26 0.0734874ZM6.17333 14.5935H1.82667V10.5535L6.17333 9.10015V14.5935ZM14.1733 14.3802H12.84V13.0468C12.84 12.926 12.7925 12.81 12.7076 12.7239C12.6228 12.6378 12.5075 12.5886 12.3867 12.5868H9.6C9.5399 12.5868 9.4804 12.5988 9.42496 12.622C9.36952 12.6452 9.31925 12.6791 9.27707 12.7219C9.23488 12.7648 9.20163 12.8155 9.17924 12.8713C9.15686 12.9271 9.14578 12.9867 9.14667 13.0468V14.3802H7.81333V5.11349L14.1867 1.92682L14.1733 14.3802Z" fill="currentColor"/>
<path d="M13.3401 3.5H12.4067V4.43333H13.3401V3.5Z" fill="currentColor"/>
<path d="M13.3401 9.08643H12.4067V10.0198H13.3401V9.08643Z" fill="currentColor"/>
<path d="M13.3401 5.35986H12.4067V6.2932H13.3401V5.35986Z" fill="currentColor"/>
<path d="M13.3401 7.22656H12.4067V8.1599H13.3401V7.22656Z" fill="currentColor"/>
<path d="M5.42015 11.0732H4.48682V12.0066H5.42015V11.0732Z" fill="currentColor"/>
<path d="M5.42015 12.9331H4.48682V13.8664H5.42015V12.9331Z" fill="currentColor"/>
<path d="M3.55345 11.0732H2.62012V12.0066H3.55345V11.0732Z" fill="currentColor"/>
<path d="M3.55345 12.9331H2.62012V13.8664H3.55345V12.9331Z" fill="currentColor"/>
<path d="M13.3401 10.9531H12.4067V11.8865H13.3401V10.9531Z" fill="currentColor"/>
<path d="M9.61351 9.08643H8.68018V10.0198H9.61351V9.08643Z" fill="currentColor"/>
<path d="M9.61351 7.22656H8.68018V8.1599H9.61351V7.22656Z" fill="currentColor"/>
<path d="M9.61351 10.9531H8.68018V11.8865H9.61351V10.9531Z" fill="currentColor"/>
<path d="M9.61351 5.35986H8.68018V6.2932H9.61351V5.35986Z" fill="currentColor"/>
<path d="M11.4734 10.9531H10.54V11.8865H11.4734V10.9531Z" fill="currentColor"/>
<path d="M11.4734 7.22656H10.54V8.1599H11.4734V7.22656Z" fill="currentColor"/>
<path d="M11.4734 5.35986H10.54V6.2932H11.4734V5.35986Z" fill="currentColor"/>
<path d="M11.4734 9.08643H10.54V10.0198H11.4734V9.08643Z" fill="currentColor"/>
</svg>
