<svg width="16" height="16" viewBox="0 0 16 16" fill="currentColor" xmlns="http://www.w3.org/2000/svg">
<g clip-path="url(#clip0_3881_27202)">
<path fill-rule="evenodd" clip-rule="evenodd" d="M1.915 0.560009C2.33819 0.146228 2.90863 -0.083313 3.5 -0.083313H9.33334H9.5C9.69599 -0.083313 9.8842 -0.00659084 10.0243 0.130432L14.5243 4.53043C14.6687 4.67154 14.75 4.86485 14.75 5.06669V5.32934L14.75 5.33335L14.75 5.33736V13.8667C14.75 14.4601 14.5088 15.0257 14.085 15.44C13.6618 15.8538 13.0914 16.0834 12.5 16.0834H3.5C2.90863 16.0834 2.33819 15.8538 1.915 15.44C1.49124 15.0257 1.25 14.4601 1.25 13.8667V2.13335C1.25 1.53995 1.49124 0.974349 1.915 0.560009ZM3.5 1.41669H8.58334V5.33335C8.58334 5.74757 8.91913 6.08335 9.33334 6.08335H13.25V13.8667C13.25 14.0512 13.1752 14.2318 13.0363 14.3675C12.8969 14.5038 12.7043 14.5834 12.5 14.5834H3.5C3.29572 14.5834 3.1031 14.5038 2.96368 14.3675C2.82483 14.2318 2.75 14.0512 2.75 13.8667V2.13335C2.75 1.94879 2.82483 1.76828 2.96368 1.63252C3.1031 1.49619 3.29572 1.41669 3.5 1.41669ZM10.0833 4.58335H12.4329L10.0833 2.28601V4.58335ZM5.33334 8.25C4.91913 8.25 4.58334 8.58579 4.58334 9C4.58334 9.41421 4.91913 9.75 5.33334 9.75H10.6667C11.0809 9.75 11.4167 9.41421 11.4167 9C11.4167 8.58579 11.0809 8.25 10.6667 8.25H5.33334ZM4.58334 12C4.58334 11.5858 4.91913 11.25 5.33334 11.25H10.6667C11.0809 11.25 11.4167 11.5858 11.4167 12C11.4167 12.4142 11.0809 12.75 10.6667 12.75H5.33334C4.91913 12.75 4.58334 12.4142 4.58334 12ZM5.33334 5.25C4.91913 5.25 4.58334 5.58579 4.58334 6C4.58334 6.41421 4.91913 6.75 5.33334 6.75H6.66668C7.08089 6.75 7.41668 6.41421 7.41668 6C7.41668 5.58579 7.08089 5.25 6.66668 5.25H5.33334Z"/>
</g>
<defs>
<clipPath id="clip0_3881_27202">
<rect width="16" height="16" fill="white"/>
</clipPath>
</defs>
</svg>
