<svg viewBox="0 0 40 52" fill="none" xmlns="http://www.w3.org/2000/svg">
<mask id="path-1-inside-1" fill="white">
<path fill-rule="evenodd" clip-rule="evenodd" d="M20 24C26.6274 24 32 18.6274 32 12C32 5.37258 26.6274 0 20 0C13.3726 0 8 5.37258 8 12C8 18.6274 13.3726 24 20 24ZM0.363525 41.4606C0.363525 43.9766 1.51645 46.4016 3.69703 47.6567C8.49702 50.4197 14.0639 52 19.9999 52C25.9359 52 31.5028 50.4197 36.3027 47.6567C38.4833 46.4016 39.6363 43.9766 39.6363 41.4606V36C39.6363 31.5817 36.0545 28 31.6362 28H8.36352C3.94525 28 0.363525 31.5817 0.363525 36V41.4606Z"/>
</mask>
<path fill-rule="evenodd" clip-rule="evenodd" d="M20 24C26.6274 24 32 18.6274 32 12C32 5.37258 26.6274 0 20 0C13.3726 0 8 5.37258 8 12C8 18.6274 13.3726 24 20 24ZM0.363525 41.4606C0.363525 43.9766 1.51645 46.4016 3.69703 47.6567C8.49702 50.4197 14.0639 52 19.9999 52C25.9359 52 31.5028 50.4197 36.3027 47.6567C38.4833 46.4016 39.6363 43.9766 39.6363 41.4606V36C39.6363 31.5817 36.0545 28 31.6362 28H8.36352C3.94525 28 0.363525 31.5817 0.363525 36V41.4606Z" fill="currentColor"/>
<path d="M3.69703 47.6567L5.6925 44.19L5.6925 44.19L3.69703 47.6567ZM36.3027 47.6567L34.3073 44.19L34.3073 44.19L36.3027 47.6567ZM28 12C28 16.4183 24.4183 20 20 20V28C28.8366 28 36 20.8366 36 12H28ZM20 4C24.4183 4 28 7.58172 28 12H36C36 3.16344 28.8366 -4 20 -4V4ZM12 12C12 7.58172 15.5817 4 20 4V-4C11.1634 -4 4 3.16344 4 12H12ZM20 20C15.5817 20 12 16.4183 12 12H4C4 20.8366 11.1634 28 20 28V20ZM5.6925 44.19C4.98007 43.78 4.36353 42.8297 4.36353 41.4606H-3.63647C-3.63647 45.1234 -1.94718 49.0232 1.70156 51.1235L5.6925 44.19ZM19.9999 48C14.7827 48 9.90169 46.6129 5.6925 44.19L1.70156 51.1235C7.09234 54.2264 13.3451 56 19.9999 56V48ZM34.3073 44.19C30.0981 46.6129 25.217 48 19.9999 48V56C26.6547 56 32.9074 54.2264 38.2982 51.1235L34.3073 44.19ZM35.6363 41.4606C35.6363 42.8297 35.0197 43.78 34.3073 44.19L38.2982 51.1235C41.947 49.0232 43.6363 45.1234 43.6363 41.4606H35.6363ZM35.6363 36V41.4606H43.6363V36H35.6363ZM31.6362 32C33.8454 32 35.6363 33.7909 35.6363 36H43.6363C43.6363 29.3726 38.2637 24 31.6362 24V32ZM8.36352 32H31.6362V24H8.36352V32ZM4.36353 36C4.36353 33.7909 6.15438 32 8.36352 32V24C1.73611 24 -3.63647 29.3726 -3.63647 36H4.36353ZM4.36353 41.4606V36H-3.63647V41.4606H4.36353Z" fill="currentColor" mask="url(#path-1-inside-1)"/>
</svg>
