<svg viewBox="0 0 16 16" fill="none" xmlns="http://www.w3.org/2000/svg">
<path fill-rule="evenodd" clip-rule="evenodd" d="M14.2414 8.23053V5.13273L9.41332 7.94078C8.97715 8.19444 8.48838 8.32112 8 8.32112C7.51162 8.32112 7.02284 8.19444 6.58667 7.94078L1.75862 5.13273V11.0527C1.75862 11.5057 2.15886 11.9056 2.68966 11.9056H13.3103C13.8411 11.9056 14.2414 11.5057 14.2414 11.0527C14.2414 10.5715 14.6527 10.2124 15.1207 10.2124C15.5887 10.2124 16 10.5715 16 11.0527C16 12.467 14.776 13.5862 13.3103 13.5862H2.68966C1.224 13.5862 0 12.467 0 11.0527V4.53356C0 3.11923 1.224 2 2.68966 2H13.3103C14.776 2 16 3.11923 16 4.53356V8.23053C16 8.7117 15.5887 9.07082 15.1207 9.07082C14.6527 9.07082 14.2414 8.7117 14.2414 8.23053ZM8.49861 6.50521C8.19125 6.68397 7.80873 6.68398 7.5014 6.50521L2.64637 3.68148C2.66071 3.68088 2.67514 3.68057 2.68966 3.68057H13.3103C13.3249 3.68057 13.3393 3.68088 13.3537 3.68148L8.49861 6.50521Z" fill="currentColor"/>
</svg>
