<svg viewBox="0 0 12 12" fill="none" xmlns="http://www.w3.org/2000/svg">
<path d="M1.875 1.6875C1.875 2.20527 1.45527 2.625 0.9375 2.625C0.419733 2.625 0 2.20527 0 1.6875C0 1.16973 0.419733 0.75 0.9375 0.75C1.45527 0.75 1.875 1.16973 1.875 1.6875Z" fill="currentColor"/>
<path d="M1.875 10.6875C1.875 11.2053 1.45527 11.625 0.9375 11.625C0.419733 11.625 0 11.2053 0 10.6875C0 10.1697 0.419733 9.75 0.9375 9.75C1.45527 9.75 1.875 10.1697 1.875 10.6875Z" fill="currentColor"/>
<path d="M1.875 6.1875C1.875 6.70527 1.45527 7.125 0.9375 7.125C0.419733 7.125 0 6.70527 0 6.1875C0 5.66973 0.419733 5.25 0.9375 5.25C1.45527 5.25 1.875 5.66973 1.875 6.1875Z" fill="currentColor"/>
<path fill-rule="evenodd" clip-rule="evenodd" d="M3.5625 1.6875C3.5625 1.16973 3.98223 0.75 4.5 0.75H10.875C11.3928 0.75 11.8125 1.16973 11.8125 1.6875C11.8125 2.20527 11.3928 2.625 10.875 2.625H4.5C3.98223 2.625 3.5625 2.20527 3.5625 1.6875Z" fill="currentColor"/>
<path fill-rule="evenodd" clip-rule="evenodd" d="M3.5625 10.6875C3.5625 10.1697 3.98223 9.75 4.5 9.75H10.875C11.3928 9.75 11.8125 10.1697 11.8125 10.6875C11.8125 11.2053 11.3928 11.625 10.875 11.625H4.5C3.98223 11.625 3.5625 11.2053 3.5625 10.6875Z" fill="currentColor"/>
<path fill-rule="evenodd" clip-rule="evenodd" d="M3.5625 6.1875C3.5625 5.66973 3.98223 5.25 4.5 5.25H10.875C11.3928 5.25 11.8125 5.66973 11.8125 6.1875C11.8125 6.70527 11.3928 7.125 10.875 7.125H4.5C3.98223 7.125 3.5625 6.70527 3.5625 6.1875Z" fill="currentColor"/>
</svg>
