<svg viewBox="0 0 16 16" fill="none" xmlns="http://www.w3.org/2000/svg">
<path fill-rule="evenodd" clip-rule="evenodd" d="M4 0H5.13684V1V1.13684H5H4V0ZM14.8632 12H16V10.8632H15H14.8632V11V12ZM16 1.13684V0H14.8632V0.999999V1.13684H15H16ZM7 0V1.13684H9V0H7ZM11 0V1.13684H13V0H11ZM16 3H14.8632V5H16V3ZM16 7H14.8632V9H16V7ZM13 12V10.8632H12.6667V5.13333V3.33333H10.8667H5.13684V3H4V3.33333H1.8H0V5.13333V14.2V16H1.8H10.8667H12.6667V14.2V12H13ZM1.8 5.13333H10.8667V14.2H1.8V5.13333Z" fill="currentColor"/>
</svg>
