<svg viewBox="0 0 18 20" fill="none" xmlns="http://www.w3.org/2000/svg">
<path fill-rule="evenodd" clip-rule="evenodd" d="M9 3.75002C8.66444 3.75002 8.35962 3.63276 8.13501 3.44202C6.30392 3.85296 4.87499 5.54012 4.87499 7.62815V10.1303C4.87499 12.1216 4.15265 14.0283 2.85042 15.5H15.1476C13.8479 14.0309 13.125 12.1222 13.125 10.1303V7.62815C13.125 5.54017 11.6961 3.85302 9.86497 3.44203C9.64036 3.63276 9.33555 3.75002 9 3.75002ZM10.25 1.10674V1.47764C13.03 2.07117 15.125 4.60339 15.125 7.62815V10.1303C15.125 11.9064 15.8836 13.5826 17.2057 14.7296C17.5549 15.0348 17.75 15.4699 17.75 15.9295C17.75 16.7955 17.0632 17.5 16.2186 17.5H1.78119C0.936849 17.5 0.25 16.7955 0.25 15.9295C0.25 15.4699 0.445144 15.0348 0.785445 14.7359C2.11637 13.5826 2.87499 11.9064 2.87499 10.1303V7.62815C2.87499 4.60335 4.97001 2.0711 7.75 1.47762V1.10674C7.75 0.495827 8.31 1.90735e-05 9 1.90735e-05C9.69 1.90735e-05 10.25 0.495827 10.25 1.10674ZM9.00004 20C7.62001 20 6.5 18.88 6.5 17.5L11.5 17.5002C11.5 18.8803 10.3801 20 9.00004 20Z" fill="currentColor"/>
</svg>
