<svg viewBox="0 0 16 16" fill="none" xmlns="http://www.w3.org/2000/svg">
<g>
<path d="M15.0001 8H1.00006" stroke="currentColor" stroke-width="1.3" stroke-linecap="round" stroke-linejoin="round"/>
<path d="M3.41506 2.8325L1.00006 8V12.5C1.00006 12.8978 1.14756 13.2794 1.41011 13.5607C1.67266 13.842 2.02876 14 2.40006 14H13.6001C13.9714 14 14.3275 13.842 14.59 13.5607C14.8526 13.2794 15.0001 12.8978 15.0001 12.5V8L12.5851 2.8325C12.4692 2.58259 12.2905 2.37228 12.0691 2.22521C11.8478 2.07814 11.5925 2.00015 11.3321 2H4.66806C4.4076 2.00015 4.15235 2.07814 3.93099 2.22521C3.70964 2.37228 3.53097 2.58259 3.41506 2.8325V2.8325Z" stroke="currentColor" stroke-width="1.8" stroke-linecap="round" stroke-linejoin="round"/>
<path d="M4.00006 10.6667H4.00673" stroke="currentColor" stroke-width="1.8" stroke-linecap="round" stroke-linejoin="round"/>
<path d="M6.66675 10.6667H6.67342" stroke="currentColor" stroke-width="1.8" stroke-linecap="round" stroke-linejoin="round"/>
</g>
</svg>
