<svg viewBox="0 0 51 51" fill="none" xmlns="http://www.w3.org/2000/svg">
<path d="M28.687 33.4688H22.4714C21.7281 33.4695 21.0118 33.7481 20.4633 34.2497C20.0137 34.6574 19.6977 35.1915 19.5569 35.7819C19.416 36.3723 19.4568 36.9915 19.6738 37.5583C19.8909 38.1251 20.2742 38.6131 20.7734 38.9584C21.2726 39.3036 21.8644 39.49 22.4714 39.4931H28.687C29.2979 39.4985 29.8958 39.3171 30.4006 38.9731C30.9054 38.6291 31.293 38.1391 31.5115 37.5686C31.73 36.9981 31.7689 36.3745 31.623 35.7813C31.4771 35.1881 31.1533 34.6537 30.6952 34.2497C30.1466 33.7481 29.4304 33.4695 28.687 33.4688ZM29.5955 36.4809C29.5955 36.8475 29.4042 37.0706 29.3405 37.0706H21.7383C21.7383 37.0706 21.4833 36.8475 21.4833 36.4809C21.4833 36.1144 21.6745 35.9072 21.7383 35.9072H29.2608C29.2608 35.9072 29.5158 36.1144 29.5158 36.4809H29.5955Z" fill="currentColor"/>
<path d="M47.9878 7.96875H36.2738V7.79344C36.2738 6.99456 35.9564 6.22839 35.3915 5.6635C34.8266 5.0986 34.0604 4.78125 33.2616 4.78125H17.7384C16.9396 4.78125 16.1734 5.0986 15.6085 5.6635C15.0436 6.22839 14.7262 6.99456 14.7262 7.79344V7.96875H3.01219C2.22692 7.96847 1.47259 8.27487 0.909935 8.82264C0.347276 9.37042 0.0207742 10.1163 0 10.9012L0 43.4616C0 44.2604 0.317355 45.0266 0.882249 45.5915C1.44714 46.1564 2.21331 46.4737 3.01219 46.4737H18.5194C19.3183 46.4737 20.0844 46.1564 20.6493 45.5915C21.2142 45.0266 21.5316 44.2604 21.5316 43.4616V43.3819H29.5003V43.4616C29.5003 44.2604 29.8177 45.0266 30.3826 45.5915C30.9475 46.1564 31.7136 46.4737 32.5125 46.4737H48.0197C48.813 46.4654 49.571 46.1443 50.1291 45.5803C50.6871 45.0163 51 44.255 51 43.4616V10.9012C50.9792 10.1163 50.6527 9.37042 50.0901 8.82264C49.5274 8.27487 48.7731 7.96847 47.9878 7.96875ZM14.7262 40.1147H7.68188C7.59614 40.0579 7.52724 39.9791 7.48238 39.8866C7.43752 39.7941 7.41835 39.6912 7.42687 39.5887C7.42687 39.27 7.55437 39.1584 7.66594 39.1584H14.7262V40.1147ZM14.7262 23.3962V26.3128V36.6562H7.66594C6.86706 36.6562 6.10089 36.9736 5.536 37.5385C4.9711 38.1034 4.65375 38.8696 4.65375 39.6684C4.65375 40.4673 4.9711 41.2335 5.536 41.7984C6.10089 42.3633 6.86706 42.6806 7.66594 42.6806H15.7303C16.2821 43.177 16.9962 43.4548 17.7384 43.4616H18.615L18.5194 43.6369L2.91656 43.5412L3.01219 10.8056H14.7262V23.3962ZM33.3413 7.79344L33.2616 40.4494H20.8463L17.6588 40.3537V10.0725L17.7384 7.65L33.3413 7.79344ZM32.385 43.3819H33.2616C34.0038 43.3751 34.7179 43.0974 35.2697 42.6009H43.3341C44.1329 42.6009 44.8991 42.2836 45.464 41.7187C46.0289 41.1538 46.3462 40.3876 46.3462 39.5887C46.3462 38.7899 46.0289 38.0237 45.464 37.4588C44.8991 36.8939 44.1329 36.5766 43.3341 36.5766H36.2738V30.09V27.1734V26.3128V23.3962V10.8056L48.0834 10.9012V43.4616L47.9878 43.5572L32.385 43.4616V43.3819ZM36.2738 40.0669V39.1266H43.3341C43.4515 39.1442 43.5595 39.201 43.6405 39.2878C43.7216 39.3746 43.7708 39.4863 43.7803 39.6047C43.7803 39.8597 43.4456 40.0509 43.3341 40.0669H36.2738Z" fill="currentColor"/>
<path d="M5.38865 26.9724H12.1179C12.1986 26.9759 12.2791 26.9626 12.3544 26.9335C12.4297 26.9044 12.4981 26.8601 12.5552 26.8033C12.6155 26.7477 12.6638 26.6804 12.6972 26.6057C12.7307 26.5309 12.7484 26.4502 12.7495 26.3684V23.9523C12.7421 23.7882 12.6727 23.6329 12.5552 23.5174C12.4981 23.4606 12.4297 23.4163 12.3544 23.3872C12.2791 23.3581 12.1986 23.3448 12.1179 23.3483H11.0976C11.0169 23.3448 10.9364 23.3581 10.8611 23.3872C10.7858 23.4163 10.7174 23.4606 10.6603 23.5174C10.6 23.573 10.5517 23.6403 10.5183 23.715C10.4848 23.7898 10.4671 23.8705 10.466 23.9523V24.7738H8.37673V22.551H9.93151C10.0971 22.545 10.2543 22.4769 10.3715 22.3604C10.4886 22.2438 10.5571 22.0875 10.5631 21.9228V21.1255C10.5571 20.9608 10.4886 20.8045 10.3715 20.688C10.2543 20.5714 10.0971 20.5033 9.93151 20.4973H8.37673V19.4101C8.37265 19.283 8.39663 19.1565 8.447 19.0396C8.49737 18.9228 8.57289 18.8183 8.66825 18.7336C8.93237 18.5298 9.25714 18.4192 9.5914 18.4192C9.92566 18.4192 10.2504 18.5298 10.5145 18.7336C10.5908 18.7683 10.6736 18.7863 10.7575 18.7863C10.8413 18.7863 10.9242 18.7683 11.0004 18.7336C11.1409 18.6987 11.2678 18.623 11.3648 18.5161L12.0207 17.6947C12.1249 17.5744 12.1773 17.4181 12.1665 17.2598C12.1355 17.0866 12.0401 16.9313 11.8993 16.8249C11.606 16.6106 11.2879 16.4321 10.9518 16.2933C10.4245 16.0588 9.85328 15.9375 9.27559 15.9375C8.69789 15.9375 8.1267 16.0588 7.59935 16.2933C7.03537 16.6284 6.58652 17.1253 6.3118 17.7188C6.02063 18.2264 5.86976 18.8016 5.87452 19.3859V20.5215H5.583C5.4174 20.5275 5.26022 20.5956 5.14305 20.7121C5.02588 20.8286 4.9574 20.985 4.95137 21.1497V22.0436C4.9417 22.1374 4.95424 22.2321 4.98799 22.3202C5.02174 22.4083 5.07575 22.4874 5.14572 22.551C5.21486 22.5802 5.28922 22.5953 5.36436 22.5953C5.43949 22.5953 5.51385 22.5802 5.583 22.551H5.87452V24.9671H5.38865C5.30798 24.9637 5.22747 24.9769 5.15223 25.0061C5.07699 25.0352 5.00865 25.0796 4.95156 25.1364C4.89446 25.1932 4.84985 25.2611 4.82054 25.336C4.79124 25.4108 4.77788 25.4909 4.78132 25.5711L4.78076 26.2969C4.77732 26.3771 4.79124 26.5645 4.82054 26.6393C4.84985 26.7141 4.89446 26.7817 4.95156 26.8385C5.00865 26.8953 5.07048 26.9433 5.14572 26.9724C5.22096 27.0016 5.30798 26.9758 5.38865 26.9724Z" fill="currentColor"/>
<path d="M45.6243 23.3966H44.585C44.499 23.3927 44.4131 23.4056 44.3323 23.4346C44.2516 23.4637 44.1776 23.5083 44.1148 23.5657C44.0079 23.6871 43.9467 23.8406 43.9416 24.0006V24.8221H41.8134V22.551H43.3972C43.5405 22.605 43.6993 22.605 43.8426 22.551C43.9007 22.4942 43.9462 22.4262 43.976 22.3513C44.0058 22.2764 44.0194 22.1963 44.0158 22.1161V21.1255C44.0194 21.0452 44.0058 20.9651 43.976 20.8903C43.9462 20.8154 43.9007 20.7474 43.8426 20.6906C43.7856 20.6306 43.7168 20.5825 43.6402 20.5493C43.5636 20.5161 43.4809 20.4984 43.3972 20.4973H41.8134V19.4101C41.8061 19.2848 41.8267 19.1595 41.8737 19.0427C41.9207 18.926 41.993 18.8205 42.0856 18.7336C42.3602 18.5317 42.6946 18.4225 43.0383 18.4225C43.3821 18.4225 43.7165 18.5317 43.9911 18.7336C44.0682 18.7699 44.1528 18.7888 44.2385 18.7888C44.3242 18.7888 44.4088 18.7699 44.486 18.7336C44.6291 18.6987 44.7583 18.623 44.8572 18.5161L45.5253 17.7188C45.6265 17.5875 45.6709 17.4227 45.649 17.2598C45.6286 17.0886 45.5397 16.9322 45.4016 16.8249C45.1028 16.6106 44.7788 16.4321 44.4365 16.2933C43.8993 16.0588 43.3175 15.9375 42.729 15.9375C42.1406 15.9375 41.5587 16.0588 41.0215 16.2933C40.488 16.5501 40.0349 16.9424 39.71 17.4289C39.3941 17.9296 39.231 18.5079 39.2398 19.096V20.2315H38.9429C38.8591 20.2326 38.7764 20.2503 38.6999 20.2835C38.6233 20.3168 38.5544 20.3648 38.4975 20.4248C38.438 20.4807 38.3917 20.5486 38.3618 20.6237C38.3319 20.6988 38.3191 20.7793 38.3242 20.8597V21.7537C38.2872 21.8246 38.2655 21.9021 38.2605 21.9816C38.2555 22.061 38.2673 22.1406 38.2951 22.2154C38.323 22.2902 38.3663 22.3586 38.4224 22.4163C38.4785 22.474 38.5462 22.5199 38.6212 22.551C38.7394 22.6679 38.8985 22.7369 39.0666 22.7443H39.3636V24.9671H38.8934C38.8112 24.9636 38.7292 24.9768 38.6525 25.0059C38.5758 25.0351 38.5062 25.0794 38.448 25.1362C38.3865 25.1918 38.3373 25.259 38.3033 25.3338C38.2692 25.4085 38.2511 25.4893 38.25 25.5711V26.4892C38.2511 26.571 38.2692 26.6517 38.3033 26.7265C38.3373 26.8012 38.3865 26.8685 38.448 26.9241C38.5062 26.9809 38.5758 27.0252 38.6525 27.0543C38.7292 27.0834 38.8112 27.0967 38.8934 27.0932H45.748C45.8744 27.0276 45.9778 26.9267 46.045 26.8033C46.1031 26.7465 46.1486 26.6785 46.1784 26.6036C46.2082 26.5287 46.2217 26.4486 46.2182 26.3684V23.9523C46.2078 23.8078 46.1466 23.6712 46.045 23.5657C45.9897 23.5119 45.9241 23.4693 45.8519 23.4403C45.7797 23.4113 45.7024 23.3964 45.6243 23.3966Z" fill="currentColor"/>
<path d="M21.3855 25.4982H29.6163C29.7049 25.5024 29.7934 25.4888 29.8762 25.4581C29.9591 25.4275 30.0345 25.3805 30.0978 25.3202C30.2151 25.191 30.2803 25.025 30.2812 24.8528V22.0487C30.2824 21.9665 30.2668 21.8848 30.2353 21.8084C30.2039 21.732 30.1571 21.6624 30.0978 21.6037C30.0357 21.5404 29.961 21.49 29.8782 21.4555C29.7954 21.4211 29.7063 21.4034 29.6163 21.4034H28.3782C28.2821 21.4085 28.1886 21.4353 28.105 21.4816C28.0214 21.528 27.9501 21.5926 27.8968 21.6704C27.8374 21.7292 27.7907 21.7988 27.7592 21.8752C27.7277 21.9516 27.7121 22.0332 27.7133 22.1155V23.1837H24.9392V20.3129H26.9568C27.0415 20.3141 27.1257 20.2989 27.2044 20.2684C27.2831 20.2378 27.3548 20.1924 27.4153 20.1348C27.4805 20.0746 27.5324 20.0021 27.5679 19.9217C27.6034 19.8414 27.6216 19.7549 27.6216 19.6675V18.5993C27.6216 18.5119 27.6034 18.4254 27.5679 18.345C27.5324 18.2647 27.4805 18.1922 27.4153 18.1319C27.3548 18.0743 27.2831 18.029 27.2044 17.9984C27.1257 17.9678 27.0415 17.9527 26.9568 17.9539H24.9392V16.5519C24.9315 16.39 24.9604 16.2284 25.0238 16.0785C25.0871 15.9286 25.1834 15.7939 25.306 15.6839C25.6493 15.4222 26.0732 15.28 26.5097 15.28C26.9462 15.28 27.3701 15.4222 27.7133 15.6839C27.8395 15.7934 28.0027 15.8539 28.1719 15.8539C28.3411 15.8539 28.5043 15.7934 28.6304 15.6839L29.4329 14.7047C29.4881 14.6404 29.5288 14.5656 29.5525 14.4851C29.5762 14.4047 29.5823 14.3203 29.5704 14.2374C29.5478 14.0633 29.4576 13.9041 29.3182 13.7923C28.9594 13.5465 28.5753 13.3377 28.1719 13.1691C27.5374 12.8928 26.8498 12.75 26.1543 12.75C25.4588 12.75 24.7713 12.8928 24.1367 13.1691C23.5051 13.4646 22.9725 13.9275 22.6006 14.5044C22.2302 15.0773 22.0391 15.7421 22.0504 16.4183V17.8871H21.6147C21.5257 17.8804 21.4362 17.8926 21.3524 17.9226C21.2686 17.9527 21.1925 18 21.1293 18.0613C21.0662 18.1227 21.0174 18.1965 20.9864 18.2778C20.9555 18.3592 20.943 18.4461 20.9499 18.5325V19.6675C20.943 19.754 20.9555 19.8408 20.9864 19.9222C21.0174 20.0035 21.0662 20.0774 21.1293 20.1387C21.1925 20.2 21.2686 20.2473 21.3524 20.2774C21.4362 20.3075 21.5257 20.3196 21.6147 20.3129H22.0504V23.1392H21.3855C21.3007 23.138 21.2166 23.1532 21.1379 23.1837C21.0592 23.2143 20.9875 23.2597 20.9269 23.3173C20.8617 23.3775 20.8098 23.45 20.7743 23.5304C20.7389 23.6107 20.7206 23.6972 20.7206 23.7846V24.8528C20.7137 24.9393 20.7262 25.0262 20.7572 25.1075C20.7881 25.1888 20.8369 25.2627 20.9001 25.324C20.9632 25.3853 21.0393 25.4326 21.1231 25.4627C21.2069 25.4928 21.2964 25.5049 21.3855 25.4982Z" fill="currentColor"/>
</svg>
