<svg xmlns="http://www.w3.org/2000/svg" viewBox="0 0 24 24">
<path d="M21.56,17A.94.94,0,0,0,22.5,16V12.56a3.76,3.76,0,0,0-3.75-3.75H17.62V5.51a5.63,5.63,0,0,0-11.25,0v3.3H5.25A3.76,3.76,0,0,0,1.5,12.56v7.69A3.75,3.75,0,0,0,5.25,24h13.5a3.75,3.75,0,0,0,3.75-3.75.94.94,0,1,0-1.87,0,1.89,1.89,0,0,1-1.88,1.88H5.25a1.88,1.88,0,0,1-1.87-1.88V12.56a1.87,1.87,0,0,1,1.87-1.87h13.5a1.88,1.88,0,0,1,1.88,1.87V16A.94.94,0,0,0,21.56,17ZM15.75,8.81H8.25V5.51A3.69,3.69,0,0,1,12,1.88a3.69,3.69,0,0,1,3.75,3.63Z" fill="currentColor" />
<path d="M12,17.2a.94.94,0,1,0-.94-.93A.94.94,0,0,0,12,17.2Z" fill="currentColor" />
</svg>