<svg viewBox="0 0 12 12" fill="none" xmlns="http://www.w3.org/2000/svg">
<path d="M6.66282 6.0004L11.8626 0.800616C12.0457 0.617546 12.0457 0.320734 11.8626 0.137688C11.6795 -0.0453588 11.3827 -0.0453822 11.1997 0.137688L5.99987 5.33747L0.800109 0.137688C0.617039 -0.0453822 0.320227 -0.0453822 0.13718 0.137688C-0.0458661 0.320758 -0.0458896 0.617569 0.13718 0.800616L5.33694 6.00038L0.13718 11.2002C-0.0458896 11.3832 -0.0458896 11.68 0.13718 11.8631C0.228704 11.9546 0.34868 12.0004 0.468656 12.0004C0.588633 12.0004 0.708586 11.9546 0.800132 11.8631L5.99987 6.66333L11.1996 11.8631C11.2912 11.9546 11.4111 12.0004 11.5311 12.0004C11.6511 12.0004 11.771 11.9546 11.8626 11.8631C12.0457 11.68 12.0457 11.3832 11.8626 11.2002L6.66282 6.0004Z" fill="currentColor"/>
</svg>
