<svg viewBox="0 0 12 12" fill="none" xmlns="http://www.w3.org/2000/svg" preserveAspectRatio="xMidYMin slice">
<path d="M11.0625 1.94531H8.22656V1.40625C8.22656 0.630844 7.59572 0 6.82031 0H5.17969C4.40428 0 3.77344 0.630844 3.77344 1.40625V1.94531H0.9375C0.678609 1.94531 0.46875 2.15517 0.46875 2.41406C0.46875 2.67295 0.678609 2.88281 0.9375 2.88281H1.42294L1.9942 10.2888C1.99437 10.2909 1.99455 10.2931 1.99474 10.2953C2.0373 10.7622 2.25148 11.1935 2.59779 11.5097C2.9441 11.8259 3.39307 12 3.86198 12H8.13802C9.11459 12 9.91732 11.2727 10.0053 10.3082C10.0288 10.0504 9.83883 9.82233 9.58102 9.79882C9.32295 9.77531 9.09513 9.96525 9.07163 10.2231C9.02801 10.7016 8.62664 11.0625 8.13802 11.0625H3.86198C3.37502 11.0625 2.97429 10.6976 2.92863 10.2131L2.36323 2.88281H9.63677L9.23641 8.07333C9.21652 8.33145 9.40962 8.55682 9.66773 8.57674C9.68002 8.57768 9.69218 8.57815 9.7043 8.57815C9.94681 8.57815 10.1522 8.39126 10.1711 8.14542L10.5771 2.88281H11.0625C11.3214 2.88281 11.5312 2.67295 11.5312 2.41406C11.5312 2.15517 11.3214 1.94531 11.0625 1.94531ZM7.28906 1.94531H4.71094V1.40625C4.71094 1.14778 4.92122 0.9375 5.17969 0.9375H6.82031C7.07878 0.9375 7.28906 1.14778 7.28906 1.40625V1.94531Z" fill="currentColor"/>
<path d="M3.87017 3.82075C3.61154 3.83205 3.41103 4.05086 3.42232 4.30952L3.6567 9.67513C3.66769 9.9268 3.87518 10.1234 4.12465 10.1234C4.13154 10.1234 4.1385 10.1233 4.14546 10.123C4.4041 10.1117 4.6046 9.89287 4.59331 9.63421L4.35893 4.26857C4.34764 4.00996 4.1284 3.80912 3.87017 3.82075Z" fill="currentColor"/>
<path d="M7.64106 4.2686L7.40669 9.63424C7.39539 9.89287 7.5959 10.1117 7.85453 10.123C7.86149 10.1233 7.86843 10.1235 7.87534 10.1235C8.12479 10.1235 8.3323 9.92683 8.3433 9.67516L8.57767 4.30954C8.58897 4.05091 8.38846 3.83207 8.12983 3.82078C7.87162 3.80922 7.65236 4.00996 7.64106 4.2686Z" fill="currentColor"/>
<path d="M5.53125 4.28906V9.65468C5.53125 9.91357 5.74111 10.1234 6 10.1234C6.25889 10.1234 6.46875 9.91357 6.46875 9.65468V4.28906C6.46875 4.03017 6.25889 3.82031 6 3.82031C5.74111 3.82031 5.53125 4.03017 5.53125 4.28906Z" fill="currentColor"/>
</svg>
