<svg viewBox="0 0 16 16" fill="none" xmlns="http://www.w3.org/2000/svg">
<path d="M9.13538 16H3.16663C1.78809 16 0.666626 14.8785 0.666626 13.5V6C0.666626 4.62146 1.78809 3.5 3.16663 3.5H9.13538C10.5139 3.5 11.6354 4.62146 11.6354 6V13.5C11.6354 14.8785 10.5139 16 9.13538 16ZM3.16663 4.75C2.47742 4.75 1.91663 5.31079 1.91663 6V13.5C1.91663 14.1892 2.47742 14.75 3.16663 14.75H9.13538C9.82458 14.75 10.3854 14.1892 10.3854 13.5V6C10.3854 5.31079 9.82458 4.75 9.13538 4.75H3.16663ZM15.4687 11.2708V2.5C15.4687 1.12146 14.3472 0 12.9687 0H6.69788C6.35266 0 6.07288 0.279785 6.07288 0.625C6.07288 0.970215 6.35266 1.25 6.69788 1.25H12.9687C13.6579 1.25 14.2187 1.81079 14.2187 2.5V11.2708C14.2187 11.616 14.4985 11.8958 14.8437 11.8958C15.1889 11.8958 15.4687 11.616 15.4687 11.2708Z" fill="currentColor"/>
<path fill-rule="evenodd" clip-rule="evenodd" d="M3.41663 7.33333C3.41663 6.96514 3.7151 6.66667 4.08329 6.66667L8.08329 6.66667C8.45148 6.66667 8.74996 6.96514 8.74996 7.33333C8.74996 7.70152 8.45148 8 8.08329 8L4.08329 8C3.7151 8 3.41663 7.70152 3.41663 7.33333Z" fill="currentColor"/>
<path fill-rule="evenodd" clip-rule="evenodd" d="M3.41663 10C3.41663 9.63181 3.7151 9.33333 4.08329 9.33333H8.08329C8.45148 9.33333 8.74996 9.63181 8.74996 10C8.74996 10.3682 8.45148 10.6667 8.08329 10.6667H4.08329C3.7151 10.6667 3.41663 10.3682 3.41663 10Z" fill="currentColor"/>
<path fill-rule="evenodd" clip-rule="evenodd" d="M3.41663 12.6667C3.41663 12.2985 3.7151 12 4.08329 12H5.41663C5.78482 12 6.08329 12.2985 6.08329 12.6667C6.08329 13.0349 5.78482 13.3333 5.41663 13.3333H4.08329C3.7151 13.3333 3.41663 13.0349 3.41663 12.6667Z" fill="currentColor"/>
</svg>
