<svg viewBox="0 0 24 24" fill="none" xmlns="http://www.w3.org/2000/svg">
<path d="M22.5938 1.40653C21.6868 0.4995 20.481 0 19.1983 0C17.9157 0 16.7098 0.4995 15.8028 1.40648L2.3827 14.8266C2.26851 14.9408 2.18578 15.0825 2.14247 15.2381L0.0345917 22.8111C-0.056299 23.1377 0.0361854 23.488 0.276607 23.7271C0.454732 23.9043 0.69342 24 0.937826 24C1.02323 24 1.10939 23.9883 1.1939 23.9643L8.76689 21.8131C9.08639 21.7224 9.33408 21.4693 9.41789 21.1479C9.5017 20.8265 9.40917 20.4847 9.17465 20.2494L4.40034 15.4606L15.5245 4.33645L19.6616 8.47355L11.1456 16.9663C10.779 17.3319 10.7782 17.9255 11.1438 18.2921C11.5094 18.6588 12.1031 18.6595 12.4696 18.294L22.5937 8.19745C23.5007 7.29047 24.0002 6.08461 24.0002 4.80197C24.0002 3.51933 23.5007 2.31347 22.5938 1.40653ZM6.72187 20.4449L2.289 21.7041L3.53048 17.2438L6.72187 20.4449ZM21.2688 6.8707L20.9892 7.14956L16.8503 3.01064L17.1287 2.7323C17.6815 2.17945 18.4165 1.875 19.1983 1.875C19.9801 1.875 20.7151 2.17945 21.2679 2.73234C21.8208 3.28514 22.1252 4.02014 22.1252 4.80197C22.1252 5.5838 21.8208 6.3188 21.2688 6.8707Z" fill="currentColor"/>
</svg>
