<svg viewBox="0 0 51 51" fill="none" xmlns="http://www.w3.org/2000/svg">
<path d="M49.0078 33.0722C50.1081 33.0722 51 32.1803 51 31.08V17.9315C51 13.5376 47.4252 9.96289 43.0312 9.96289H34.4575V7.36558C34.4575 4.34672 32.0015 1.89075 28.9826 1.89075H22.0174C18.9985 1.89075 16.5425 4.34672 16.5425 7.36558V9.96279H7.96875C3.57478 9.96279 0 13.5376 0 17.9315V41.1405C0 45.5345 3.57478 49.1093 7.96875 49.1093H43.0312C47.4252 49.1093 51 45.5345 51 41.1405C51 40.0402 50.1081 39.1483 49.0078 39.1483C47.9075 39.1483 47.0156 40.0402 47.0156 41.1405C47.0156 43.3375 45.2282 45.1249 43.0312 45.1249H7.96875C5.77177 45.1249 3.98437 43.3375 3.98437 41.1405V26.9923H23.6074V29.9843C23.6074 31.0846 24.4993 31.9765 25.5996 31.9765C26.6999 31.9765 27.5918 31.0846 27.5918 29.9843V26.9923H47.0156V31.08C47.0156 32.1803 47.9075 33.0722 49.0078 33.0722ZM20.5269 7.36558C20.5269 6.5437 21.1955 5.87512 22.0174 5.87512H28.9826C29.8045 5.87512 30.4731 6.5437 30.4731 7.36558V9.96279H20.5269V7.36558ZM3.98437 23.008V17.9316C3.98437 15.7347 5.77177 13.9473 7.96875 13.9473H43.0312C45.2282 13.9473 47.0156 15.7347 47.0156 17.9316V23.008H3.98437Z" fill="currentColor"/>
</svg>
