<svg viewBox="0 0 16 16" fill="none" xmlns="http://www.w3.org/2000/svg">
<path d="M11.887 13.8897C11.7572 13.6753 11.5466 13.5175 11.2993 13.4493C11.0519 13.3811 10.7868 13.4077 10.5592 13.5235C9.77789 13.9346 8.89927 14.1425 8.00958 14.1268C7.1199 14.1111 6.24973 13.8724 5.48449 13.4341C4.71925 12.9958 4.08525 12.373 3.64472 11.6268C3.20419 10.8805 2.97227 10.0366 2.97174 9.17772C3.00506 9.0366 3.00502 8.89005 2.97161 8.74895C2.93821 8.60785 2.8723 8.47583 2.77879 8.36268C2.68527 8.24954 2.56655 8.15818 2.43144 8.09539C2.29633 8.0326 2.1483 8 1.99835 8C1.84839 8 1.70036 8.0326 1.56525 8.09539C1.43014 8.15818 1.31142 8.24954 1.21791 8.36268C1.12439 8.47583 1.05849 8.60785 1.02508 8.74895C0.991681 8.89005 0.991638 9.0366 1.02496 9.17772C1.02496 10.0744 1.20812 10.9624 1.56396 11.7907C1.9198 12.6191 2.44134 13.3716 3.09875 14.0052C3.75616 14.6388 4.53654 15.1412 5.39526 15.4834C6.25398 15.8257 7.17419 16.0013 8.10325 16C9.28829 15.9988 10.4545 15.7141 11.4976 15.1713C11.7215 15.0476 11.8871 14.8451 11.9597 14.6062C12.0322 14.3673 12.0062 14.1105 11.887 13.8897V13.8897Z" fill="currentColor"/>
<path d="M12.9705 4.33089C12.336 3.69663 11.58 3.19358 10.7465 2.85111C9.91302 2.50864 9.01882 2.3336 8.1161 2.33624H6.70832L7.51415 1.5307C7.66981 1.3557 7.75565 1.13072 7.75565 0.897779C7.75565 0.664838 7.66981 0.43986 7.51415 0.264859C7.33359 0.0948434 7.0937 0 6.84425 0C6.59479 0 6.3549 0.0948434 6.17434 0.264859L4.61122 1.77044C4.21901 2.17404 4 2.7118 4 3.27123C4 3.83066 4.21901 4.36842 4.61122 4.77202L6.17434 6.31596C6.3549 6.48598 6.59479 6.58082 6.84425 6.58082C7.0937 6.58082 7.33359 6.48598 7.51415 6.31596C7.66318 6.13816 7.74228 5.91323 7.73693 5.68247C7.73158 5.4517 7.64214 5.23059 7.48503 5.05971L6.6889 4.25418H8.1161C8.77144 4.25418 9.42036 4.38167 10.0258 4.62938C10.6313 4.87709 11.1814 5.24017 11.6448 5.69788C12.1082 6.15559 12.4758 6.69897 12.7266 7.297C12.9774 7.89502 13.1064 8.53599 13.1064 9.18329C13.1074 10.0342 12.8832 10.8706 12.4559 11.6095C12.3384 11.8269 12.3101 12.0807 12.377 12.3182C12.4439 12.5557 12.6008 12.7587 12.8152 12.8849C12.9583 12.9612 13.1185 13.0008 13.2812 13C13.448 12.9983 13.6116 12.9542 13.7562 12.8719C13.9007 12.7896 14.0214 12.6719 14.1064 12.5301C14.6907 11.5089 14.9983 10.3562 14.9997 9.18329C15.0088 8.2813 14.8339 7.38674 14.4853 6.55303C14.1366 5.71932 13.6215 4.96356 12.9705 4.33089V4.33089Z" fill="currentColor"/>
</svg>