<svg xmlns="http://www.w3.org/2000/svg" viewBox="0 0 24 24"><defs><style>.a{fill:#222955;fill-rule:evenodd;}</style></defs><path class="a" d="M5.48,3.31A1,1,0,0,1,5.75,4a1,1,0,0,1-.27.68L2.6,7.55a1,1,0,0,1-.68.27,1,1,0,0,1-.68-.27l-1-1A1,1,0,0,1,0,5.87a1,1,0,0,1,.27-.68,1,1,0,0,1,.68-.27,1,1,0,0,1,.68.27l.32.31,2.2-2.2A1,1,0,0,1,4.8,3a1,1,0,0,1,.68.27Zm0,6.53a1,1,0,0,1,.27.68,1,1,0,0,1-.27.68L2.6,14.08a1,1,0,0,1-.68.27,1,1,0,0,1-.68-.27l-1-1A1,1,0,0,1,0,12.4a1,1,0,0,1,.27-.68,1,1,0,0,1,.68-.27,1,1,0,0,1,.68.27l.28.28,2.2-2.2a1,1,0,0,1,.68-.27,1,1,0,0,1,.68.27Zm0,6.53a1,1,0,0,1,.27.68,1,1,0,0,1-.27.68L2.6,20.61a1,1,0,0,1-.68.27,1,1,0,0,1-.68-.27l-1-1A1,1,0,0,1,0,18.93a1,1,0,0,1,.27-.68A1,1,0,0,1,.92,18a1,1,0,0,1,.68.27l.28.28,2.2-2.2a1,1,0,0,1,.68-.27,1,1,0,0,1,.68.27Zm17.49-3H8.7A1,1,0,0,1,8,13.08a1,1,0,0,1-.29-.71,1,1,0,0,1,1-1H23a1,1,0,0,1,.71.29,1,1,0,0,1,.29.71,1,1,0,0,1-.07.39.91.91,0,0,1-.22.33.87.87,0,0,1-.32.22,1,1,0,0,1-.39.08Zm0,6.53H8.7A1,1,0,0,1,8,19.61a1,1,0,0,1-.29-.71,1,1,0,0,1,1-1H23a1,1,0,0,1,.71.29,1,1,0,0,1,.29.71,1,1,0,0,1-.07.39.91.91,0,0,1-.22.33.87.87,0,0,1-.32.22,1,1,0,0,1-.39.08Zm0-13H8.7A1,1,0,0,1,8,6.57a1,1,0,0,1-.29-.71,1,1,0,0,1,1-1H23a1,1,0,0,1,.71.29,1,1,0,0,1,.29.71,1,1,0,0,1-1,1Z"/></svg>