<svg xmlns="http://www.w3.org/2000/svg" viewBox="0 0 16 16"><defs><style>.a{fill-rule:evenodd;}</style></defs><path class="a" d="M4.8,1.53A.8.8,0,0,1,5,1.8a.88.88,0,0,1,.07.32A1,1,0,0,1,5,2.45a.8.8,0,0,1-.18.27L2.28,5.24A.8.8,0,0,1,2,5.42a1,1,0,0,1-.33.07.88.88,0,0,1-.32-.07.8.8,0,0,1-.27-.18L.25,4.4A.84.84,0,1,1,1.44,3.21l.24.25L3.61,1.53a.8.8,0,0,1,.27-.18.71.71,0,0,1,.32-.07.78.78,0,0,1,.33.07A.8.8,0,0,1,4.8,1.53Zm0,4.58A.8.8,0,0,1,5,6.38.77.77,0,0,1,5,7a.8.8,0,0,1-.18.27L2.28,9.82A.8.8,0,0,1,2,10a1,1,0,0,1-.33.07A.88.88,0,0,1,1.36,10a.8.8,0,0,1-.27-.18L.25,9A.84.84,0,0,1,0,8.4a.7.7,0,0,1,.06-.32A.75.75,0,0,1,.24,7.8a1,1,0,0,1,.27-.19,1,1,0,0,1,.33-.06.81.81,0,0,1,.6.24L1.68,8,3.61,6.11a.86.86,0,0,1,1.19,0Zm0,4.65a.85.85,0,0,1,.2,1,.9.9,0,0,1-.2.28L2.28,14.47a.8.8,0,0,1-.27.18,1,1,0,0,1-.33.07.88.88,0,0,1-.32-.07.8.8,0,0,1-.27-.18l-.84-.84a.8.8,0,0,1-.18-.27A.78.78,0,0,1,0,13a.71.71,0,0,1,.07-.32.83.83,0,0,1,.45-.45.71.71,0,0,1,.32-.07.78.78,0,0,1,.33.07.8.8,0,0,1,.27.18l.24.24,1.93-1.92a.8.8,0,0,1,.27-.18.71.71,0,0,1,.32-.07.78.78,0,0,1,.33.07A.8.8,0,0,1,4.8,10.76ZM15,13.82H7.27a1,1,0,0,1-.71-.29,1,1,0,0,1-.29-.71,1,1,0,0,1,1-1H15a1,1,0,0,1,.71.29,1,1,0,0,1,.29.71,1,1,0,0,1-1,1Zm0-4.65H7.27a1,1,0,0,1-.71-.29,1,1,0,0,1-.29-.71,1,1,0,0,1,1-1H15a1,1,0,0,1,.71.29,1,1,0,0,1,.29.71,1,1,0,0,1-1,1ZM15,4.6H7.27a1,1,0,0,1-.71-.29,1,1,0,0,1-.29-.71,1,1,0,0,1,1-1H15a1,1,0,0,1,.71.29A1,1,0,0,1,16,3.6a1.05,1.05,0,0,1-.29.71A1.05,1.05,0,0,1,15,4.6Z"/></svg>