<svg width="12" height="14" viewBox="0 0 12 14" fill="none" xmlns="http://www.w3.org/2000/svg">
<path d="M5.99991 2.18749C4.11524 2.18749 2.58194 3.72079 2.58194 5.60545C2.58194 7.49012 4.11524 9.02342 5.99991 9.02342C6.31821 9.02342 6.6336 8.97959 6.9373 8.89313C7.2278 8.81047 7.39624 8.50794 7.31358 8.21744C7.23087 7.92696 6.92839 7.75847 6.63786 7.84119C6.43158 7.89989 6.21693 7.92967 5.99991 7.92967C4.71833 7.92967 3.67569 6.88703 3.67569 5.60545C3.67569 4.32388 4.71833 3.28124 5.99991 3.28124C7.28148 3.28124 8.32412 4.32388 8.32412 5.60545C8.32412 5.83347 8.29131 6.05854 8.22659 6.27436C8.13983 6.56366 8.30403 6.86852 8.59332 6.95528C8.88265 7.04198 9.18745 6.87787 9.27424 6.58854C9.36953 6.27073 9.41787 5.93998 9.41787 5.60545C9.41787 3.72079 7.88457 2.18749 5.99991 2.18749Z" fill="#124384"/>
<path d="M9.9614 1.63964C8.90292 0.582312 7.49603 0 5.99992 0C4.50378 0 3.09691 0.582312 2.03844 1.63967C0.98007 2.69694 0.396254 4.10301 0.394531 5.60008C0.395598 6.68987 0.698293 7.7123 1.31987 8.72588C1.85813 9.60354 2.55739 10.3693 3.2977 11.1801C4.02359 11.975 4.77415 12.797 5.37358 13.7453C5.4738 13.9039 5.64831 14 5.83586 14H6.16398C6.35153 14 6.52604 13.9039 6.62625 13.7453C7.22568 12.797 7.97624 11.9749 8.70214 11.18C9.44244 10.3693 10.1417 9.60354 10.68 8.72585C11.3016 7.71228 11.6042 6.68981 11.6053 5.59888C11.6036 4.10298 11.0198 2.69691 9.9614 1.63964ZM7.89446 10.4425C7.24904 11.1494 6.58494 11.8766 5.99992 12.7131C5.41493 11.8766 4.7508 11.1494 4.10538 10.4425C2.70213 8.9058 1.4902 7.57859 1.48828 5.60016C1.49113 3.11533 3.51506 1.09375 5.99992 1.09375C8.48478 1.09375 10.5087 3.11533 10.5116 5.59899C10.5096 7.57859 9.29771 8.90578 7.89446 10.4425Z" fill="#124384"/>
</svg>
