<svg width="15" height="14" viewBox="0 0 15 14" fill="none" xmlns="http://www.w3.org/2000/svg">
<path d="M9.74292 6.29999H6.61603C6.30959 6.29999 6.06119 6.54836 6.06119 6.85483C6.06119 7.16127 6.30956 7.40966 6.61603 7.40966H9.74292C10.0496 7.40966 10.2978 7.1613 10.2978 6.85483C10.2977 6.54836 10.0494 6.29999 9.74292 6.29999Z" fill="#124384"/>
<path d="M11.0745 8.40004H6.61603C6.30959 8.40004 6.06119 8.6484 6.06119 8.95487C6.06119 9.26132 6.30956 9.50971 6.61603 9.50971H11.0745C11.3809 9.50971 11.6293 9.26134 11.6293 8.95487C11.6293 8.6484 11.3809 8.40004 11.0745 8.40004Z" fill="#124384"/>
<path d="M9.74292 10.447H6.61603C6.30959 10.447 6.06119 10.6954 6.06119 11.0018C6.06119 11.3083 6.30956 11.5567 6.61603 11.5567H9.74292C10.0496 11.5567 10.2978 11.3083 10.2978 11.0018C10.2977 10.6954 10.0494 10.447 9.74292 10.447Z" fill="#124384"/>
<path fill-rule="evenodd" clip-rule="evenodd" d="M4.11936 0.121948H13.5897C13.8962 0.121948 14.1445 0.370311 14.1445 0.67678V11.3821C14.1445 12.7486 13.0327 13.8603 11.6663 13.8603H2.86234C2.77153 13.8725 2.32867 13.8787 2.23436 13.8787C1.08198 13.8787 0.144531 12.9413 0.144531 11.7889V6.95042C0.144531 5.79824 1.08198 4.86059 2.23436 4.86059V4.86252C2.24181 4.86222 2.24931 4.86207 2.25684 4.86207C2.56264 4.86207 2.81055 5.10998 2.81055 5.41578C2.81055 5.72159 2.56264 5.96949 2.25684 5.96949C2.24932 5.96949 2.24183 5.96934 2.23439 5.96905V5.97023C1.69399 5.97023 1.2542 6.41002 1.2542 6.95042V11.7889C1.2542 12.3293 1.6938 12.7691 2.23439 12.7691V12.7506H2.77412C3.22407 12.662 3.56455 12.2644 3.56455 11.7889L3.56452 0.67678C3.56452 0.370311 3.81291 0.121948 4.11936 0.121948ZM13.0349 11.382C13.0349 12.1239 12.4083 12.7506 11.6663 12.7506H4.43949C4.58948 12.4626 4.67419 12.1355 4.67419 11.7889V1.23159H13.0349V11.382Z" fill="#124384"/>
<path fill-rule="evenodd" clip-rule="evenodd" d="M7.14455 3.50005V4.20005H10.6445V3.50005H7.14455ZM6.79455 2.45005C6.40795 2.45005 6.09455 2.76345 6.09455 3.15005V4.55005C6.09455 4.93665 6.40795 5.25005 6.79455 5.25005H10.9946C11.3811 5.25005 11.6946 4.93665 11.6946 4.55005V3.15005C11.6946 2.76345 11.3811 2.45005 10.9946 2.45005H6.79455Z" fill="#124384"/>
</svg>
