<svg width="16" height="16" viewBox="0 0 16 16" fill="none" xmlns="http://www.w3.org/2000/svg">
<path fill-rule="evenodd" clip-rule="evenodd" d="M5.9 12.4H10.1V14.4H10.9V2.46202L5.1 5.0398V14.4H5.9V12.4ZM7.5 14V16H3.5V4L12.5 0V16H8.5V14H7.5Z" fill="#222955"/>
<path d="M10 10.3999H9V11.3999H10V10.3999Z" fill="#222955"/>
<path d="M10 8.3999H9V9.3999H10V8.3999Z" fill="#222955"/>
<path d="M10 6.3999H9V7.3999H10V6.3999Z" fill="#222955"/>
<path d="M10 4.3999H9V5.3999H10V4.3999Z" fill="#222955"/>
<path d="M7 10.3999H6V11.3999H7V10.3999Z" fill="#222955"/>
<path d="M7 8.3999H6V9.3999H7V8.3999Z" fill="#222955"/>
<path d="M7 6.3999H6V7.3999H7V6.3999Z" fill="#222955"/>
<path d="M8.5 10.3999H7.5V11.3999H8.5V10.3999Z" fill="#222955"/>
<path d="M8.5 8.3999H7.5V9.3999H8.5V8.3999Z" fill="#222955"/>
<path d="M8.5 6.3999H7.5V7.3999H8.5V6.3999Z" fill="#222955"/>
</svg>
