<svg width="15" height="14" viewBox="0 0 15 14" fill="none" xmlns="http://www.w3.org/2000/svg">
<g clip-path="url(#clip0_5076_109128)">
<path fill-rule="evenodd" clip-rule="evenodd" d="M1.61603 13.836C1.85271 13.9476 2.11176 14.0037 2.37342 14H12.852C13.1179 14.0043 13.3813 13.9469 13.6212 13.8321C13.8612 13.7173 14.0712 13.5484 14.2348 13.3386C14.3994 13.1338 14.517 12.8953 14.5793 12.6401C14.6416 12.3848 14.6472 12.119 14.5955 11.8613C14.5578 11.6879 14.4527 11.5365 14.3035 11.4405C14.2314 11.3914 14.1499 11.3576 14.0642 11.3414C13.9785 11.3251 13.8904 11.3267 13.8053 11.346C13.6326 11.3831 13.4815 11.487 13.385 11.635C13.2885 11.783 13.2543 11.9631 13.29 12.1362C13.3018 12.199 13.3002 12.2635 13.2854 12.3257C13.2706 12.3878 13.2429 12.4462 13.2041 12.4969C13.1637 12.5464 13.1125 12.5861 13.0545 12.6129C12.9964 12.6396 12.933 12.6529 12.8691 12.6515H2.3906C2.32669 12.6529 2.26331 12.6396 2.20527 12.6129C2.14723 12.5861 2.09606 12.5464 2.05563 12.4969C2.0168 12.4462 1.98909 12.3878 1.97429 12.3257C1.95949 12.2635 1.95794 12.199 1.96974 12.1362C2.24212 10.8637 2.93347 9.71934 3.93317 8.88626C4.93286 8.05319 6.18311 7.57952 7.48385 7.54107H7.72434C8.65171 7.56352 9.55995 7.80949 10.3719 8.25808C11.1839 8.70668 11.8755 9.34464 12.3881 10.1178C12.4314 10.2015 12.4919 10.2751 12.5655 10.3339C12.6392 10.3927 12.7244 10.4353 12.8157 10.4588C12.9069 10.4824 13.0021 10.4865 13.095 10.4708C13.188 10.4551 13.2765 10.4199 13.3549 10.3676C13.4334 10.3154 13.4999 10.2471 13.5501 10.1674C13.6004 10.0877 13.6332 9.99824 13.6465 9.90494C13.6599 9.81164 13.6533 9.71659 13.6274 9.62598C13.6015 9.53537 13.5568 9.45125 13.4961 9.37911C12.6632 8.13522 11.4618 7.18316 10.0605 6.65641C10.5439 6.24544 10.9161 5.71937 11.1427 5.12672C11.3692 4.53407 11.4429 3.89391 11.357 3.26527C11.271 2.63663 11.0282 2.03975 10.6509 1.52967C10.2735 1.01958 9.77384 0.612713 9.19787 0.346575C8.6219 0.0804367 7.98819 -0.0364024 7.35518 0.00683122C6.72217 0.0500648 6.11023 0.251979 5.57579 0.593957C5.04135 0.935934 4.60162 1.40697 4.29714 1.96362C3.99265 2.52027 3.83322 3.14463 3.83355 3.77911C3.83091 4.32698 3.9488 4.86873 4.17887 5.36597C4.40893 5.86321 4.74554 6.30376 5.16483 6.65641C4.02467 7.06802 3.0083 7.76357 2.21178 8.67732C1.41525 9.59107 0.864884 10.6928 0.612686 11.8785C0.565703 12.1386 0.576755 12.4059 0.645053 12.6613C0.713351 12.9167 0.837209 13.1538 1.00778 13.3558C1.17131 13.5601 1.37935 13.7243 1.61603 13.836ZM7.60824 1.33114C7.60972 1.33118 7.61121 1.33122 7.61269 1.33126H7.6041C7.60548 1.33122 7.60686 1.33118 7.60824 1.33114ZM5.86293 2.00267C6.33299 1.55671 6.9606 1.31528 7.60824 1.33114C8.25599 1.31406 8.88417 1.55441 9.35512 1.99963C9.82706 2.44581 10.1024 3.06119 10.1207 3.7104C10.1389 4.35961 9.89846 4.98947 9.45229 5.46142C9.00611 5.93336 8.39073 6.20874 7.74152 6.22696H7.48385C6.83464 6.20988 6.21881 5.9356 5.77183 5.46445C5.32484 4.99331 5.08333 4.3639 5.10042 3.71469C5.1175 3.06548 5.39178 2.44965 5.86293 2.00267Z" fill="#124384"/>
</g>
<defs>
<clipPath id="clip0_5076_109128">
<rect width="14" height="14" fill="white" transform="translate(0.613281)"/>
</clipPath>
</defs>
</svg>
