<svg viewBox="0 0 320 875" fill="none" xmlns="http://www.w3.org/2000/svg">
<path d="M0 0C62.2034 1.5027 121.946 24.1798 169.521 64.2062C184.559 79.7796 195.496 98.7683 201.512 119.533C189.344 119.806 177.314 118.44 165.557 115.571C144.913 108.058 125.364 97.9486 107.181 85.6538C71.4997 59.2883 37.322 30.1906 0 0Z" fill="#124384"/>
<path d="M326.721 692C324.347 734.815 313.042 776.726 293.371 814.909C279.127 844.054 252.56 865.18 220.906 872.409C214.914 873.652 209.148 873.765 202.252 874.443C200.783 853.205 205.757 831.967 216.497 813.44C225.88 798.303 237.072 784.408 249.847 771.981C278.674 748.71 304.563 721.823 326.721 692Z" fill="#124384"/>
<path d="M199.933 589.423C186.478 591.091 173.121 593.151 159.665 594.329C125.683 598.253 91.2093 594.133 59.1912 582.163C28.8428 571.763 6.54801 545.664 1.04798 514.071C0.655115 512.011 0.655118 509.852 0.360474 506.615C36.0125 498.177 73.5306 504.652 104.272 524.569C110.459 528.886 116.549 533.596 122.245 538.6C144.049 560.676 170.862 577.355 200.326 587.265L199.933 589.423Z" fill="#3776CA"/>
</svg>
