<svg viewBox="0 0 813 943" fill="none" xmlns="http://www.w3.org/2000/svg">
<path d="M0 0C120.695 2.91574 236.616 46.9169 328.928 124.581C358.107 154.799 379.328 191.643 391 231.934C367.391 232.464 344.048 229.813 321.235 224.247C281.18 209.668 243.247 190.053 207.967 166.197C138.733 115.039 72.4172 58.5798 0 0Z" fill="#124384"/>
<path d="M813 589C808.394 672.075 786.458 753.396 748.29 827.484C720.651 884.036 669.103 925.026 607.683 939.054C596.057 941.466 584.87 941.685 571.49 943C568.638 901.791 578.29 860.583 599.128 824.635C617.335 795.263 639.051 768.302 663.838 744.19C719.774 699.036 770.006 646.867 813 589Z" fill="#124384"/>
<path d="M508.238 651.69C482.13 654.926 456.212 658.924 430.104 661.208C364.167 668.823 297.277 660.828 235.151 637.602C176.265 617.422 133.006 566.783 122.334 505.482C121.572 501.484 121.572 497.296 121 491.014C190.177 474.641 262.974 487.206 322.623 525.852C334.629 534.228 346.444 543.367 357.497 553.076C399.803 595.91 451.829 628.274 509 647.502L508.238 651.69Z" fill="#3776CA"/>
</svg>
