<svg  viewBox="0 0 79 48" fill="none" xmlns="http://www.w3.org/2000/svg">
<path d="M27.1864 47.1952C27.2718 47.2521 27.3002 47.2806 27.3327 47.2887C28.6455 47.5529 29.9868 47.6057 31.3158 47.4431C32.3644 47.3456 33.3602 46.9595 34.2015 46.3295C34.9656 45.7239 35.4371 44.8257 35.5021 43.8543C33.8073 43.4479 32.023 43.8624 30.6858 44.9801C29.7185 45.9922 28.5155 46.7522 27.1864 47.1952Z" fill="#222955"/>
<path d="M50.8775 47.2846L50.8897 47.1871C49.6704 46.7766 48.5649 46.0857 47.6585 45.1712C47.4228 44.9639 47.1708 44.7688 46.9148 44.59C45.6426 43.769 44.09 43.5007 42.6147 43.8462C42.6269 43.9803 42.6309 44.0616 42.6431 44.1551C42.8707 45.4638 43.7933 46.5449 45.0492 46.9758C46.3783 47.4675 47.8008 47.6423 49.2071 47.4797C49.7679 47.4391 50.3207 47.3497 50.8775 47.2846Z" fill="#222955"/>
<path d="M39.095 47.9999C40.3753 48.004 41.4157 46.9717 41.4198 45.6914C41.4239 44.4111 40.3915 43.3706 39.1113 43.3666C37.831 43.3625 36.7905 44.3949 36.7864 45.6751C36.7864 45.6833 36.7864 45.6873 36.7864 45.6955C36.7824 46.9635 37.8066 47.9959 39.0747 47.9999C39.0828 47.9999 39.0909 47.9999 39.095 47.9999Z" fill="#222955"/>
<path d="M26.8816 42.7488C25.8655 42.3465 24.7478 42.2611 23.683 42.505C22.9311 42.7813 22.1995 43.1146 21.4963 43.5048C20.716 43.8787 19.9438 44.277 19.1593 44.6347C18.8626 44.7322 18.5578 44.8054 18.2489 44.8501C18.6513 44.972 18.948 45.0655 19.2528 45.1509C20.7973 45.6304 22.4393 45.7158 24.0244 45.4029C25.4144 45.1549 26.5321 44.1185 26.8816 42.7488Z" fill="#222955"/>
<path d="M51.2433 42.7691C51.5075 43.8218 52.2391 44.6956 53.2308 45.1305C54.2265 45.541 55.3077 45.6954 56.3766 45.5898C57.5431 45.5207 58.6892 45.2728 59.7825 44.8582C58.8111 44.6794 57.8804 44.3095 57.0513 43.773C56.6164 43.5048 56.1734 43.2284 55.7222 42.9805C54.3322 42.2692 52.6984 42.192 51.2433 42.7691Z" fill="#222955"/>
<path d="M66.9317 41.3385L66.9114 41.2694L66.2611 41.2287C65.1881 41.0905 64.1395 40.7938 63.1518 40.3468C62.3552 40.0257 61.4895 39.9037 60.636 39.985C59.8353 40.0866 59.0672 40.3549 58.3762 40.7654C58.9574 41.9644 60.1605 42.7366 61.4936 42.7732C63.1112 42.826 64.7166 42.4683 66.1554 41.7286C66.3952 41.6108 66.6594 41.4685 66.9317 41.3385Z" fill="#222955"/>
<path d="M19.7649 40.7532C18.6676 40.0663 17.3507 39.8143 16.0786 40.0419C15.538 40.1639 15.0097 40.3265 14.4935 40.5297C13.453 40.9767 12.3435 41.2369 11.2136 41.2897C12.9206 42.3546 14.9202 42.8626 16.9321 42.7366C18.1636 42.6309 19.2447 41.875 19.7649 40.7532Z" fill="#222955"/>
<path d="M72.4429 36.6726L71.626 36.8067C70.5083 36.9002 69.3825 36.8352 68.2851 36.6117C66.7203 36.4003 65.1434 36.9287 64.0216 38.0382C64.6191 38.778 65.501 39.2332 66.4521 39.2941C67.3747 39.3429 68.2932 39.1681 69.1346 38.7861C70.3376 38.2537 71.4553 37.5424 72.4429 36.6726Z" fill="#222955"/>
<path d="M5.68604 36.6523C6.77934 37.644 8.04336 38.4243 9.42117 38.9568C10.1284 39.221 10.8884 39.3388 11.6444 39.3022C12.6036 39.2494 13.4977 38.7942 14.1033 38.0464C12.9856 36.9449 11.4208 36.4166 9.86419 36.6238C8.48637 36.9246 7.06385 36.9368 5.68604 36.6523Z" fill="#222955"/>
<path d="M9.6975 35.242C9.03502 34.1202 7.94171 33.3154 6.67363 33.0106C6.01114 32.8684 5.32833 32.8237 4.66584 32.6773C3.81639 32.4904 2.97507 32.2425 2.13782 32.0271C2.32478 32.2628 2.53206 32.5392 2.7556 32.8033C3.65382 33.9617 4.81622 34.8924 6.1412 35.5143C7.29141 36.063 8.64484 35.9573 9.6975 35.242Z" fill="#222955"/>
<path d="M75.9992 32.0108C75.2636 32.2262 74.5848 32.4619 73.8939 32.6123C73.203 32.7627 72.4754 32.8277 71.7723 32.9456C70.366 33.1854 69.1386 34.0308 68.4152 35.2582C69.3906 35.941 70.6465 36.0751 71.7439 35.6159C73.4753 34.8396 74.9506 33.5918 75.9992 32.0108Z" fill="#222955"/>
<path d="M71.5935 31.836C72.6787 32.2059 73.8777 31.9986 74.7759 31.2873C76.2187 30.0884 77.2836 28.4992 77.8445 26.7109C77.0357 27.3734 76.1375 27.9099 75.1742 28.3122C74.6418 28.5439 74.1256 28.804 73.6257 29.0967C72.6218 29.7144 71.8943 30.694 71.5935 31.836Z" fill="#222955"/>
<path d="M0.260132 26.6946C0.776304 28.2675 1.65014 29.6982 2.81661 30.8728C3.31246 31.3605 3.92617 31.7141 4.59679 31.897C5.2227 32.0839 5.89332 32.0636 6.50704 31.8401C6.10873 30.3972 5.06826 29.2186 3.68638 28.6414C2.44675 28.1781 1.29248 27.5237 0.260132 26.6946Z" fill="#222955"/>
<path d="M78.0599 21.1834C77.2633 22.2564 76.3325 23.2196 75.2921 24.0569C74.8328 24.504 74.4304 25.0039 74.0931 25.5485C73.707 26.211 73.5281 26.9751 73.581 27.7432C73.833 27.7189 74.0484 27.7148 74.2516 27.6701C75.3896 27.41 76.3447 26.6499 76.8568 25.6013C77.564 24.2316 77.9745 22.7238 78.0599 21.1834Z" fill="#222955"/>
<path d="M3.8611 22.8741C3.93426 22.4392 4.02367 22.0653 4.06025 21.6792C4.10902 20.6022 3.81233 19.5373 3.21487 18.6431C2.56457 17.6271 2.04433 16.5337 1.66635 15.3876C1.21927 17.0621 1.21114 18.822 1.65009 20.4965C1.96711 21.5979 2.78811 22.4799 3.8611 22.8741Z" fill="#222955"/>
<path d="M74.2841 22.8538C75.4099 22.4271 76.2472 21.4638 76.5195 20.2933C76.8568 18.8382 76.869 17.3304 76.5479 15.8713C76.5235 15.7168 76.4788 15.5624 76.4585 15.4608C76.1334 16.168 75.8204 16.8914 75.4709 17.6027C75.1213 18.3139 74.723 18.9439 74.4019 19.643C73.9386 20.655 73.8939 21.8093 74.2841 22.8538Z" fill="#222955"/>
<path d="M72.2479 9.77067C72.2275 9.92512 72.2153 9.98608 72.2113 10.0511C72.1625 10.7299 72.1341 11.4086 72.069 12.0833C71.9796 13.0709 71.8089 14.0545 71.7805 15.0462C71.7926 15.9078 72.1178 16.737 72.6909 17.3791C73.4103 16.737 73.837 15.8265 73.8655 14.8592C73.8208 13.0465 73.2599 11.2826 72.2479 9.77067Z" fill="#222955"/>
<path d="M5.81611 9.86009C5.53567 10.425 5.22272 11.0062 4.94634 11.6118C4.45049 12.636 4.21476 13.77 4.2554 14.908C4.29605 15.8469 4.71874 16.7288 5.41781 17.3547C6.21848 16.3752 6.5477 15.099 6.32416 13.8553C6.14533 12.5344 5.98275 11.2135 5.81611 9.86009Z" fill="#222955"/>
<path d="M10.9778 5.27959C10.738 5.54783 10.4413 5.85266 10.169 6.18187C9.14072 7.2508 8.45791 8.60422 8.21811 10.0674C8.13276 10.8477 8.31159 11.6362 8.73022 12.3028C9.62844 11.6444 10.2178 10.6445 10.356 9.53902C10.5836 8.12056 10.7746 6.68991 10.9778 5.27959Z" fill="#222955"/>
<path d="M67.1024 5.23896C67.2487 6.1575 67.3828 7.05979 67.5373 7.96207C67.6714 8.76682 67.773 9.57968 67.9722 10.3682C68.1957 11.1567 68.6956 11.8354 69.3784 12.2865C69.8865 11.4493 70.0368 10.4413 69.793 9.49027C69.289 7.86047 68.3623 6.38917 67.1024 5.23896Z" fill="#222955"/>
<path d="M61.1156 1.87364C61.5627 3.04823 61.9854 4.23096 62.469 5.38523C62.7373 6.00708 63.0665 6.60047 63.4485 7.15729C63.7778 7.6003 64.2289 7.93358 64.7491 8.11241C64.9889 7.27922 64.9402 6.38912 64.6109 5.58845C63.8265 4.044 62.6113 2.75153 61.1156 1.87364Z" fill="#222955"/>
<path d="M13.388 8.16525C13.7212 7.95796 14.0464 7.73849 14.3593 7.49869C15.0015 6.86872 15.473 6.09243 15.7372 5.23485C16.172 4.12528 16.6313 3.02791 17.0743 1.91834C17.054 1.90208 17.0337 1.88583 17.0093 1.87364C15.79 2.6296 14.7373 3.62943 13.9123 4.80403C13.2498 5.79573 13.0587 7.02316 13.388 8.16525Z" fill="#222955"/>
<path d="M23.6057 0.00813198C22.3133 0.467403 21.1224 1.16647 20.0982 2.07689C19.5698 2.54835 19.1756 3.15394 18.9642 3.83268C18.8586 4.2757 18.7732 4.72684 18.7163 5.17798C19.6633 5.01947 20.5046 4.48298 21.0452 3.6945C21.919 2.48332 22.7441 1.24369 23.6057 0.00813198Z" fill="#222955"/>
<path d="M59.3151 5.14953C59.3842 4.25537 59.1078 3.37341 58.551 2.67434C57.4699 1.44284 56.0799 0.516172 54.5273 0C55.2629 1.08518 55.9823 2.17036 56.7342 3.24335C57.035 3.66198 57.3805 4.04809 57.7544 4.40169C58.1852 4.80812 58.7298 5.06824 59.3151 5.14953Z" fill="#222955"/>
<path d="M30.1778 0.0731516C29.8283 0.117859 29.5763 0.142246 29.3284 0.182889C28.0847 0.321077 26.8897 0.727511 25.8249 1.38187C25.0405 1.90211 24.4593 2.6784 24.1829 3.57662C24.3617 3.58881 24.508 3.60913 24.6544 3.60507C25.3412 3.58068 26.0037 3.34495 26.5443 2.92632C27.7473 2.01997 28.9138 1.06892 30.1778 0.0731516Z" fill="#222955"/>
<path d="M47.9471 0.0731516C49.0567 0.967308 50.0728 1.83708 51.1417 2.62556C51.6823 2.99135 52.2635 3.29211 52.8772 3.51565C53.2267 3.60101 53.5885 3.64165 53.9461 3.63352C53.7673 3.01574 53.4421 2.4508 52.9951 1.98746C51.5807 0.792541 49.8005 0.117859 47.9471 0.0731516Z" fill="#222955"/>
<path d="M0 21.0533C0.573073 21.9434 1.28433 22.736 2.10127 23.4066C2.49145 23.748 2.87756 24.0894 3.23928 24.4552C4.10906 25.3128 4.57239 26.4996 4.51143 27.7189C3.6254 27.7392 2.76782 27.3897 2.14598 26.7597C1.30872 25.894 0.731583 24.8129 0.479593 23.6342C0.300762 22.9555 0.211346 22.2564 0.0772226 21.5654C0.0569009 21.4679 0.0284504 21.3744 0 21.2769V21.0533Z" fill="#222955"/>
<path d="M39.3348 4.30415C44.9761 4.2188 50.593 5.07231 55.9539 6.83218C59.7256 8.01897 63.2494 9.8845 66.3505 12.3394C68.5249 14.0058 70.2482 16.1842 71.3659 18.6838C72.9957 22.3946 72.5446 26.6865 70.1872 29.9827C68.4599 32.4985 66.196 34.5998 63.5583 36.1361C59.8638 38.3675 55.8198 39.9688 51.601 40.8752C48.1585 41.6636 44.6469 42.1026 41.119 42.1961C34.2462 42.4846 27.3856 41.3995 20.9436 38.9974C17.3873 37.7131 14.1155 35.7581 11.2989 33.2383C9.21795 31.4337 7.67757 29.0926 6.84437 26.4711C5.86487 23.1912 6.40542 19.6471 8.3116 16.8061C10.0674 14.1399 12.4207 11.9207 15.1844 10.3194C18.948 8.05961 23.0693 6.44606 27.3653 5.54784C30.5517 4.82845 33.7991 4.41389 37.0628 4.31228C37.8228 4.2757 38.5788 4.30415 39.3348 4.30415ZM12.7214 17.9319C12.8677 17.9482 12.9693 17.9522 13.0669 17.9685C14.0058 18.0986 14.3106 18.444 14.3106 19.391C14.3106 22.7847 14.3106 26.1785 14.3106 29.5681C14.3756 30.2306 13.892 30.8159 13.2335 30.8809C13.2051 30.885 13.1766 30.885 13.1482 30.885L12.7133 30.9419V31.4337H13.1482C14.9649 31.4337 16.7817 31.4459 18.5944 31.4337C19.2244 31.4337 19.8544 31.3808 20.4721 31.2792C22.8376 30.9785 24.821 29.3527 25.5891 27.097C26.1175 25.6298 26.2191 24.0406 25.8818 22.5165C25.642 21.2565 25.0079 20.1023 24.0731 19.2244C22.6709 17.9969 20.8542 17.3548 18.9927 17.4279C17.0256 17.3995 15.0584 17.4279 13.0913 17.4279H12.7255L12.7214 17.9319ZM42.3912 31.4255H42.826C44.6672 31.4255 46.5124 31.4377 48.3536 31.4255C48.9591 31.4255 49.5607 31.3686 50.1581 31.263C52.3732 30.9703 54.2631 29.5112 55.1044 27.4384C55.832 25.7111 55.9376 23.7886 55.4011 21.9963C54.9459 20.2567 53.7144 18.8261 52.0684 18.1107C50.9913 17.6352 49.8249 17.3995 48.6503 17.4117H42.7488C42.6269 17.4117 42.505 17.4239 42.3993 17.432C42.2774 17.814 42.3993 17.94 42.7651 17.9847C43.6796 18.0945 43.9885 18.4725 43.9885 19.387C43.9885 22.7563 43.9885 26.1256 43.9885 29.4909C44.086 30.1575 43.6267 30.7753 42.9602 30.8728C42.887 30.885 42.8139 30.8891 42.7407 30.885C42.3465 30.8972 42.2733 31.0557 42.3912 31.4255ZM41.3832 24.1179C41.3304 23.5123 41.241 22.9148 41.1068 22.3214C40.55 19.6674 38.404 17.6393 35.7256 17.2288C33.0716 16.6069 30.3119 17.6677 28.7593 19.9113C27.4384 21.7605 27.0076 24.0975 27.5766 26.2923C28.3407 30.064 32.0189 32.5026 35.7907 31.7385C36.8515 31.5231 37.8432 31.0679 38.6967 30.4013C40.5419 28.8569 41.5417 26.5239 41.3832 24.1179ZM57.0513 26.7394V31.7873C57.3805 31.8604 57.6203 31.8726 57.7219 31.4621C57.7991 31.1451 58.0917 31.0638 58.3925 31.1451C58.6933 31.2264 59.0143 31.3443 59.3273 31.4499C60.6441 31.9173 62.0748 31.962 63.416 31.5719C65.1027 31.0882 66.318 29.6129 66.4684 27.8611C66.635 26.1053 65.7246 24.4186 64.1598 23.5976C63.6558 23.3375 63.1478 23.0855 62.656 22.8091C61.7862 22.3173 60.8799 21.8581 60.0508 21.2891C59.4045 20.7932 59.1566 19.9356 59.437 19.1756C59.5955 18.4481 60.1971 17.8994 60.9327 17.8059C61.9407 17.5986 62.9893 17.9157 63.7127 18.6472C64.4443 19.3341 64.9686 20.212 65.2328 21.1793C65.3466 21.5736 65.5376 21.6467 65.9115 21.5289C65.9115 21.3947 65.9278 21.2606 65.9278 21.1265V17.493C65.9278 17.3304 66.0416 17.0865 65.7286 17.0581C65.4848 17.0337 65.31 17.0581 65.2247 17.3629C65.1678 17.6555 64.8792 17.8466 64.5866 17.7897C64.55 17.7815 64.5175 17.7734 64.485 17.7571C64.2411 17.6962 64.0013 17.623 63.7656 17.5295C62.9324 17.1922 62.0342 17.0499 61.14 17.1068C59.689 17.0743 58.3478 17.8831 57.6975 19.1837C56.9456 20.5453 57.0188 22.2076 57.8804 23.5001C58.3519 24.1747 58.9778 24.7316 59.7053 25.1177C60.4816 25.5526 61.2944 25.9387 62.0748 26.3695C62.5463 26.6093 62.9933 26.8897 63.416 27.2068C64.0623 27.7351 64.3143 28.609 64.0541 29.4015C63.9241 30.2022 63.3226 30.8403 62.5341 31.0232C61.3676 31.3605 60.1077 31.0354 59.2501 30.1697C58.4575 29.3324 57.917 28.2838 57.7016 27.1499C57.5796 26.6499 57.5796 26.6499 57.0513 26.7394ZM39.1112 10.9697C39.0543 11.0185 38.9934 11.0632 38.9283 11.1038C37.831 11.5509 36.6564 11.7866 35.4696 11.7947C35.3314 11.7947 35.1932 11.7663 35.0672 11.7094C34.9656 11.6606 34.8965 11.5428 34.8112 11.4574C34.9006 11.3842 34.9981 11.3273 35.1038 11.2908C35.6322 11.1973 35.815 10.9087 35.6565 10.4047C35.1891 9.31143 34.0958 8.62049 32.909 8.65707C34.0349 10.4251 34.6242 12.4816 34.6161 14.5788H44.4315C44.4315 12.4979 45.0249 10.4576 46.1426 8.70178C45.033 8.67333 44.0006 9.27485 43.4763 10.2503C43.1715 10.8884 43.3382 11.2217 44.025 11.3599C44.1023 11.3883 44.1754 11.4249 44.2404 11.4737C44.1917 11.555 44.1592 11.6891 44.0941 11.7094C43.8868 11.7907 43.6674 11.8395 43.4438 11.8476C42.3952 11.8232 41.3629 11.624 40.3834 11.2501C40.2493 11.2014 40.1233 11.1404 39.9078 11.0469C40.1233 10.9575 40.2533 10.9047 40.3752 10.8559C40.8183 10.7543 41.0946 10.3113 40.993 9.86825C40.9808 9.81947 40.9646 9.7707 40.9443 9.72599C40.6272 8.93345 40.1354 8.22219 39.5095 7.64911C38.9243 8.20593 38.4609 8.88061 38.148 9.62439C37.9407 10.043 38.1114 10.547 38.53 10.7543C38.591 10.7827 38.652 10.8071 38.717 10.8193L39.1112 10.9697ZM40.0298 6.60864C40.0176 6.27943 39.7412 6.01931 39.412 6.02744C39.0868 6.02337 38.8186 6.28755 38.8145 6.61677C38.8145 6.63302 38.8145 6.64928 38.8145 6.66554C38.8389 6.99475 39.1153 7.24674 39.4445 7.23861C39.7778 7.21016 40.0257 6.93785 40.0298 6.60864ZM47.2115 7.69382C47.2155 7.42964 47.0083 7.21423 46.7481 7.2061C46.7441 7.2061 46.736 7.2061 46.7319 7.2061C46.4799 7.18984 46.2604 7.38087 46.2442 7.63285C46.2442 7.64505 46.2442 7.66131 46.2442 7.6735C46.2279 7.93362 46.423 8.16122 46.6872 8.17748C46.7034 8.17748 46.7197 8.17748 46.736 8.17748C47.0042 8.17341 47.2155 7.94987 47.2115 7.68163V7.69382ZM32.3441 8.18967C32.6123 8.18561 32.8278 7.9702 32.8237 7.70195C32.8237 7.69788 32.8237 7.69788 32.8237 7.69382C32.8318 7.4337 32.6286 7.21829 32.3685 7.2061C32.3603 7.2061 32.3522 7.2061 32.3482 7.2061C32.0799 7.2061 31.8604 7.42151 31.8604 7.68975C31.8604 7.69788 31.8604 7.70601 31.8604 7.71821C31.8686 7.97832 32.084 8.18154 32.3441 8.18154V8.18967Z" fill="#222955"/>
<path d="M27.1864 47.1952C28.5155 46.7522 29.7185 45.9922 30.6899 44.9801C32.0271 43.8665 33.8154 43.4479 35.5062 43.8543C35.4411 44.8257 34.9656 45.7239 34.2056 46.3295C33.3642 46.9595 32.3644 47.3456 31.3199 47.4431C29.9908 47.6057 28.6455 47.5529 27.3368 47.2887C27.3002 47.2846 27.2718 47.2521 27.1864 47.1952Z" fill="#222955"/>
<path d="M50.8775 47.2846C50.3207 47.3537 49.7679 47.439 49.2111 47.4878C47.8048 47.6504 46.3782 47.4797 45.0533 46.9838C43.7974 46.553 42.8748 45.4719 42.6472 44.1632C42.6309 44.0778 42.6309 43.9884 42.6187 43.8543C44.0941 43.5047 45.6467 43.773 46.9188 44.598C47.1748 44.7769 47.4268 44.972 47.6626 45.1793C48.5649 46.0937 49.6744 46.7847 50.8937 47.1952L50.8775 47.2846Z" fill="#222955"/>
<path d="M39.095 47.9999C37.8147 47.9959 36.7824 46.9554 36.7864 45.6751C36.7905 44.3949 37.831 43.3625 39.1113 43.3666C40.3915 43.3706 41.4239 44.4111 41.4198 45.6914C41.4198 45.6995 41.4198 45.7076 41.4198 45.7117C41.4117 46.9839 40.3712 48.0081 39.0991 47.9999H39.095Z" fill="#222955"/>
<path d="M26.8816 42.7488C26.5361 44.1185 25.4225 45.159 24.0365 45.4069C22.4474 45.7199 20.8095 45.6345 19.265 45.1549C18.9602 45.0736 18.6635 44.9761 18.2611 44.8541C18.57 44.8094 18.8748 44.7363 19.1715 44.6387C19.96 44.2811 20.7282 43.8828 21.5085 43.5089C22.2117 43.1187 22.9392 42.7854 23.6951 42.509C24.7559 42.2652 25.8655 42.3505 26.8816 42.7488Z" fill="#222955"/>
<path d="M51.2433 42.7691C52.6984 42.192 54.3322 42.2692 55.7263 42.9845C56.1774 43.2324 56.6164 43.5088 57.0553 43.7771C57.8845 44.3136 58.8152 44.6834 59.7866 44.8623C58.6933 45.2768 57.5471 45.5247 56.3807 45.5938C55.3117 45.6995 54.2306 45.541 53.2348 45.1346C52.2431 44.6997 51.5075 43.8258 51.2433 42.7691Z" fill="#222955"/>
<path d="M66.9317 41.3385C66.6675 41.4685 66.4073 41.6067 66.1391 41.7286C64.7003 42.4683 63.0949 42.8301 61.4773 42.7732C60.1442 42.7366 58.9452 41.9644 58.3599 40.7654C59.0509 40.3508 59.8231 40.0866 60.6197 39.985C61.4773 39.9037 62.3389 40.0257 63.1355 40.3468C64.1232 40.7938 65.1718 41.0905 66.2448 41.2287L66.8951 41.2694L66.9317 41.3385Z" fill="#222955"/>
<path d="M19.7649 40.7532C19.2407 41.879 18.1554 42.635 16.9199 42.7366C14.9121 42.8626 12.9124 42.3546 11.2013 41.2897C12.3312 41.2328 13.4408 40.9768 14.4813 40.5297C14.9974 40.3265 15.5258 40.1639 16.0663 40.042C17.3466 39.8103 18.6635 40.0663 19.7649 40.7532Z" fill="#222955"/>
<path d="M72.4429 36.6726C71.4553 37.5424 70.3376 38.2496 69.1305 38.778C68.2892 39.16 67.3706 39.3348 66.448 39.286C65.497 39.225 64.6191 38.7698 64.0175 38.0301C65.1434 36.9206 66.7163 36.3962 68.2811 36.6035C69.3784 36.8271 70.5042 36.8921 71.6219 36.7986L72.4429 36.6726Z" fill="#222955"/>
<path d="M5.68604 36.6523C7.06791 36.9368 8.49044 36.9246 9.86825 36.6238C11.4249 36.4166 12.9897 36.9449 14.1074 38.0464C13.5018 38.7942 12.6076 39.2494 11.6484 39.3022C10.8925 39.3388 10.1365 39.225 9.42524 38.9568C8.04336 38.4243 6.77528 37.644 5.68604 36.6523Z" fill="#222955"/>
<path d="M9.6975 35.242C8.64484 35.9613 7.29141 36.067 6.1412 35.5183C4.81216 34.8965 3.65382 33.9698 2.7556 32.8074C2.54019 32.5432 2.32071 32.2668 2.13782 32.0311C2.97507 32.2465 3.81639 32.4904 4.66584 32.6814C5.32833 32.8277 6.01114 32.8765 6.67363 33.0147C7.93764 33.3195 9.03095 34.1202 9.6975 35.242Z" fill="#222955"/>
<path d="M75.9992 32.0108C74.9506 33.5918 73.4753 34.8436 71.7439 35.6199C70.6465 36.0792 69.3906 35.9451 68.4152 35.2623C69.1386 34.0348 70.366 33.1854 71.7723 32.9496C72.4754 32.8277 73.1948 32.7708 73.8939 32.6164C74.593 32.4619 75.2636 32.2262 75.9992 32.0108Z" fill="#222955"/>
<path d="M71.5935 31.836C71.8902 30.694 72.6177 29.7145 73.6216 29.0926C74.1215 28.8041 74.6418 28.5399 75.1701 28.3082C76.1334 27.9058 77.0316 27.3693 77.8404 26.7068C77.2795 28.4952 76.2147 30.0884 74.7718 31.2833C73.8777 31.9986 72.6787 32.2018 71.5935 31.836Z" fill="#222955"/>
<path d="M0.260132 26.6946C1.28841 27.5237 2.44269 28.1822 3.68231 28.6455C5.06419 29.2226 6.10466 30.4013 6.50297 31.8441C5.88925 32.0677 5.21864 32.088 4.59273 31.901C3.92211 31.7141 3.31246 31.3605 2.81254 30.8768C1.64607 29.7022 0.77224 28.2675 0.260132 26.6946Z" fill="#222955"/>
<path d="M78.0599 21.1834C77.9745 22.7238 77.5681 24.2316 76.8609 25.6054C76.3488 26.654 75.3937 27.414 74.2556 27.6741C74.0402 27.7189 73.833 27.7229 73.585 27.7473C73.5322 26.9832 73.711 26.2191 74.0971 25.5526C74.4345 25.0079 74.8368 24.508 75.2961 24.0609C76.3325 23.2237 77.2633 22.2564 78.0599 21.1834Z" fill="#222955"/>
<path d="M3.8611 22.8741C2.78811 22.4799 1.96309 21.598 1.64607 20.4965C1.21119 18.8261 1.21931 17.0662 1.66639 15.3917C2.04438 16.5378 2.56461 17.6312 3.21491 18.6472C3.81237 19.5455 4.10907 20.6063 4.06029 21.6833C4.02371 22.0694 3.93426 22.4474 3.8611 22.8741Z" fill="#222955"/>
<path d="M74.2841 22.8538C73.8939 21.8093 73.9386 20.655 74.4019 19.6389C74.723 18.9439 75.1295 18.2855 75.4709 17.5986C75.8123 16.9117 76.1334 16.1639 76.4585 15.4567C76.4788 15.5583 76.5235 15.7087 76.5479 15.8672C76.8649 17.3263 76.8568 18.8342 76.5195 20.2892C76.2512 21.4638 75.4099 22.4271 74.2841 22.8538Z" fill="#222955"/>
<path d="M72.2479 9.77067C73.2599 11.2785 73.8248 13.0425 73.8695 14.8592C73.837 15.8225 73.4143 16.7329 72.6949 17.3791C72.1219 16.737 71.8008 15.9078 71.7845 15.0462C71.813 14.0586 71.9837 13.0709 72.0731 12.0833C72.1341 11.4045 72.1666 10.7258 72.2153 10.0511C72.2153 9.99014 72.2235 9.92512 72.2479 9.77067Z" fill="#222955"/>
<path d="M5.81611 9.86009C5.99088 11.2176 6.1534 12.5385 6.34036 13.8553C6.5639 15.099 6.23469 16.3752 5.43401 17.3547C4.73088 16.7288 4.31225 15.8469 4.27161 14.908C4.23097 13.77 4.4667 12.6401 4.96255 11.6118C5.21047 11.0062 5.52755 10.425 5.81611 9.86009Z" fill="#222955"/>
<path d="M10.9778 5.27959C10.7746 6.68585 10.5836 8.1165 10.3641 9.53902C10.2259 10.6445 9.63657 11.6444 8.73834 12.3028C8.32378 11.6362 8.14089 10.8477 8.22624 10.0674C8.4701 8.60422 9.14884 7.2508 10.1771 6.18187C10.4413 5.85266 10.738 5.54783 10.9778 5.27959Z" fill="#222955"/>
<path d="M67.1024 5.23896C68.3623 6.39324 69.289 7.86047 69.793 9.49027C70.0368 10.4413 69.8865 11.4493 69.3784 12.2865C68.6956 11.8354 68.1957 11.1567 67.9722 10.3682C67.7689 9.57968 67.6673 8.76682 67.5373 7.96207C67.3869 7.06385 67.2487 6.1575 67.1024 5.23896Z" fill="#222955"/>
<path d="M61.1156 1.87364C62.6153 2.75153 63.8306 4.044 64.6191 5.58845C64.9483 6.38912 64.9971 7.27922 64.7573 8.11241C64.237 7.93358 63.7818 7.6003 63.4567 7.15729C63.0746 6.60047 62.7454 6.00708 62.4772 5.38523C61.9813 4.23096 61.5627 3.04823 61.1156 1.87364Z" fill="#222955"/>
<path d="M13.388 8.16525C13.0628 7.02316 13.2539 5.79576 13.9123 4.80813C14.7374 3.63353 15.79 2.6337 17.0093 1.87773C17.0337 1.88993 17.054 1.90618 17.0744 1.92244C16.6313 3.02794 16.1721 4.12938 15.7372 5.23895C15.473 6.09653 14.9975 6.87282 14.3594 7.50279C14.0464 7.73852 13.7212 7.96203 13.388 8.16525Z" fill="#222955"/>
<path d="M23.6057 0.00813198C22.736 1.24776 21.919 2.49145 21.0452 3.6945C20.5006 4.48704 19.6592 5.01947 18.7163 5.17798C18.7773 4.72684 18.8586 4.2757 18.9642 3.83268C19.1756 3.158 19.5698 2.54835 20.0982 2.07689C21.1224 1.17054 22.3133 0.467403 23.6057 0.00813198Z" fill="#222955"/>
<path d="M59.3151 5.14953C58.7298 5.06824 58.1852 4.80812 57.7544 4.40169C57.3764 4.04809 57.035 3.66198 56.7342 3.24335C55.9823 2.17849 55.2629 1.08925 54.5273 0C56.0839 0.520236 57.4699 1.44284 58.551 2.67434C59.1078 3.37341 59.3842 4.25944 59.3151 5.14953Z" fill="#222955"/>
<path d="M30.1778 0.0731516C28.9138 1.06892 27.7473 2.02404 26.5443 2.92632C25.9997 3.34495 25.3372 3.58068 24.6544 3.60507C24.508 3.60507 24.3658 3.58881 24.1829 3.57662C24.4593 2.67433 25.0405 1.89804 25.8249 1.38187C26.8897 0.727511 28.0847 0.317013 29.3284 0.182889C29.5763 0.14631 29.8283 0.117859 30.1778 0.0731516Z" fill="#222955"/>
<path d="M47.9471 0.0731516C49.7964 0.117859 51.5725 0.792542 52.9869 1.9834C53.434 2.44673 53.7592 3.01168 53.938 3.62946C53.5763 3.63758 53.2186 3.59694 52.8691 3.51159C52.2554 3.28805 51.6741 2.98729 51.1336 2.6215C50.0728 1.83708 49.0567 0.971373 47.9471 0.0731516Z" fill="#222955"/>
<path d="M17.5498 24.3089C17.5498 22.5409 17.5498 20.7769 17.5498 19.0089C17.5498 18.4074 17.6718 18.257 18.2652 18.1392C19.5617 17.9075 20.8663 18.5131 21.5207 19.6592C22.0938 20.6428 22.4352 21.7442 22.5246 22.8782C22.7319 24.4836 22.6384 26.1094 22.2523 27.6823C22.1304 28.1456 21.9515 28.5927 21.7239 29.0113C21.0899 30.194 19.7852 30.8606 18.4562 30.6777C17.7896 30.6411 17.5702 30.381 17.562 29.7063C17.5498 28.7715 17.562 27.8408 17.562 26.906C17.5539 26.0443 17.5498 25.1786 17.5498 24.3089Z" fill="#222955"/>
<path d="M47.1667 24.3495C47.1667 22.6222 47.1667 20.8907 47.1667 19.1634C47.1667 18.4074 47.3496 18.1879 48.1015 18.131C49.3412 17.9888 50.5483 18.6025 51.162 19.6918C51.6782 20.5534 51.9992 21.5167 52.1049 22.5124C52.4097 24.3942 52.2919 26.3207 51.7594 28.1537C51.4709 29.4056 50.471 30.3729 49.207 30.6167C48.7478 30.6818 48.2844 30.698 47.8211 30.6574C47.5163 30.6411 47.2683 30.4013 47.2439 30.0965C47.1992 29.8364 47.1789 29.5722 47.1749 29.308C47.1627 27.6579 47.1667 26.0037 47.1667 24.3495Z" fill="#222955"/>
<path d="M37.9244 24.569C37.9326 26.0484 37.7009 27.5238 37.2294 28.926C36.9368 29.9705 36.1199 30.7834 35.0753 31.0719C33.9292 31.3849 32.7058 30.9338 32.0393 29.9502C31.515 29.1698 31.1898 28.2797 31.0841 27.3449C30.7062 25.1258 30.7915 22.8538 31.3443 20.6672C31.5231 19.9438 31.8686 19.2691 32.3522 18.696C33.3155 17.5824 34.9981 17.4604 36.1117 18.4196C36.2093 18.505 36.3028 18.5985 36.3881 18.696C37.0587 19.5251 37.4814 20.525 37.6034 21.5858C37.7578 22.5856 37.8228 23.5773 37.9244 24.569Z" fill="#222955"/>
</svg>
