<svg viewBox="0 0 126 48" fill="none" xmlns="http://www.w3.org/2000/svg">
<path d="M27.1864 47.1952C27.2718 47.2521 27.3002 47.2805 27.3327 47.2887C28.6455 47.5528 29.9867 47.6057 31.3158 47.4431C32.3644 47.3455 33.3601 46.9594 34.2015 46.3295C34.9656 45.7239 35.437 44.8257 35.5021 43.8543C33.8072 43.4478 32.023 43.8624 30.6858 44.9801C29.7185 45.9921 28.5154 46.7522 27.1864 47.1952Z" fill="#FDFDFD"/>
<path d="M50.8775 47.2847L50.8897 47.1871C49.6704 46.7766 48.5649 46.0857 47.6585 45.1712C47.4228 44.9639 47.1708 44.7688 46.9148 44.59C45.6426 43.769 44.09 43.5007 42.6147 43.8462C42.6269 43.9803 42.6309 44.0616 42.6431 44.1551C42.8707 45.4638 43.7933 46.5449 45.0492 46.9758C46.3783 47.4675 47.8008 47.6423 49.2071 47.4797C49.7679 47.4391 50.3207 47.3497 50.8775 47.2847Z" fill="#FDFDFD"/>
<path d="M39.095 47.9999C40.3753 48.004 41.4157 46.9717 41.4198 45.6914C41.4239 44.4111 40.3915 43.3707 39.1113 43.3666C37.831 43.3625 36.7905 44.3949 36.7865 45.6751C36.7865 45.6833 36.7865 45.6873 36.7865 45.6955C36.7824 46.9635 37.8066 47.9959 39.0747 47.9999C39.0828 47.9999 39.0909 47.9999 39.095 47.9999Z" fill="#FDFDFD"/>
<path d="M26.8816 42.7489C25.8655 42.3465 24.7478 42.2611 23.6829 42.505C22.931 42.7814 22.1994 43.1147 21.4963 43.5048C20.716 43.8788 19.9437 44.2771 19.1593 44.6347C18.8626 44.7323 18.5578 44.8054 18.2489 44.8501C18.6513 44.9721 18.948 45.0655 19.2528 45.1509C20.7972 45.6305 22.4392 45.7158 24.0243 45.4029C25.4143 45.155 26.532 44.1185 26.8816 42.7489Z" fill="#FDFDFD"/>
<path d="M51.2433 42.769C51.5075 43.8217 52.2391 44.6955 53.2308 45.1304C54.2265 45.5409 55.3077 45.6954 56.3766 45.5897C57.5431 45.5206 58.6892 45.2727 59.7825 44.8581C58.8111 44.6793 57.8804 44.3094 57.0513 43.7729C56.6164 43.5047 56.1734 43.2283 55.7222 42.9804C54.3322 42.2691 52.6984 42.1919 51.2433 42.769Z" fill="#FDFDFD"/>
<path d="M66.9317 41.3385L66.9114 41.2694L66.2611 41.2288C65.1881 41.0906 64.1395 40.7939 63.1518 40.3468C62.3552 40.0258 61.4895 39.9038 60.636 39.9851C59.8353 40.0867 59.0672 40.355 58.3762 40.7655C58.9574 41.9644 60.1605 42.7367 61.4936 42.7733C63.1112 42.8261 64.7166 42.4684 66.1554 41.7287C66.3952 41.6108 66.6594 41.4686 66.9317 41.3385Z" fill="#FDFDFD"/>
<path d="M19.765 40.7532C18.6676 40.0663 17.3507 39.8143 16.0786 40.0419C15.538 40.1639 15.0097 40.3264 14.4935 40.5297C13.453 40.9767 12.3435 41.2369 11.2136 41.2897C12.9206 42.3546 14.9202 42.8626 16.9321 42.7366C18.1636 42.6309 19.2447 41.875 19.765 40.7532Z" fill="#FDFDFD"/>
<path d="M72.4429 36.6726L71.626 36.8068C70.5083 36.9002 69.3825 36.8352 68.2851 36.6117C66.7203 36.4003 65.1434 36.9287 64.0216 38.0383C64.6191 38.778 65.501 39.2332 66.4521 39.2942C67.3747 39.3429 68.2932 39.1682 69.1346 38.7861C70.3376 38.2537 71.4553 37.5424 72.4429 36.6726Z" fill="#FDFDFD"/>
<path d="M5.68604 36.6523C6.77934 37.644 8.04336 38.4244 9.42117 38.9568C10.1284 39.221 10.8884 39.3388 11.6444 39.3023C12.6036 39.2494 13.4977 38.7942 14.1033 38.0464C12.9856 36.9449 11.4208 36.4166 9.86419 36.6239C8.48637 36.9246 7.06385 36.9368 5.68604 36.6523Z" fill="#FDFDFD"/>
<path d="M9.6975 35.242C9.03502 34.1202 7.94171 33.3155 6.67363 33.0107C6.01114 32.8684 5.32833 32.8237 4.66584 32.6774C3.81639 32.4904 2.97507 32.2425 2.13782 32.0271C2.32478 32.2628 2.53206 32.5392 2.7556 32.8034C3.65382 33.9617 4.81622 34.8925 6.1412 35.5143C7.29141 36.063 8.64484 35.9573 9.6975 35.242Z" fill="#FDFDFD"/>
<path d="M75.9992 32.0107C75.2636 32.2262 74.5848 32.4619 73.8939 32.6123C73.203 32.7626 72.4754 32.8277 71.7723 32.9455C70.366 33.1853 69.1386 34.0307 68.4152 35.2582C69.3906 35.941 70.6465 36.0751 71.7439 35.6158C73.4753 34.8395 74.9506 33.5918 75.9992 32.0107Z" fill="#FDFDFD"/>
<path d="M71.5935 31.8361C72.6787 32.2059 73.8777 31.9987 74.7759 31.2874C76.2187 30.0884 77.2836 28.4993 77.8445 26.7109C77.0357 27.3734 76.1375 27.9099 75.1742 28.3123C74.6418 28.544 74.1256 28.8041 73.6257 29.0967C72.6218 29.7145 71.8943 30.694 71.5935 31.8361Z" fill="#FDFDFD"/>
<path d="M0.260132 26.6946C0.776304 28.2675 1.65014 29.6981 2.81661 30.8727C3.31246 31.3605 3.92617 31.7141 4.59679 31.8969C5.2227 32.0839 5.89332 32.0636 6.50704 31.84C6.10873 30.3972 5.06826 29.2185 3.68638 28.6414C2.44675 28.1781 1.29248 27.5237 0.260132 26.6946Z" fill="#FDFDFD"/>
<path d="M78.0599 21.1833C77.2633 22.2563 76.3325 23.2196 75.2921 24.0568C74.8328 24.5039 74.4304 25.0038 74.0931 25.5485C73.707 26.2109 73.5281 26.975 73.581 27.7432C73.833 27.7188 74.0484 27.7148 74.2516 27.67C75.3896 27.4099 76.3447 26.6499 76.8568 25.6013C77.564 24.2316 77.9745 22.7237 78.0599 21.1833Z" fill="#FDFDFD"/>
<path d="M3.86113 22.8741C3.93429 22.4392 4.0237 22.0653 4.06028 21.6792C4.10905 20.6021 3.81236 19.5373 3.2149 18.6431C2.5646 17.627 2.04436 16.5337 1.66638 15.3876C1.2193 17.0621 1.21117 18.8219 1.65012 20.4965C1.96714 21.5979 2.78814 22.4799 3.86113 22.8741Z" fill="#FDFDFD"/>
<path d="M74.2841 22.8537C75.4099 22.427 76.2472 21.4637 76.5195 20.2932C76.8568 18.8382 76.869 17.3303 76.5479 15.8712C76.5235 15.7167 76.4788 15.5623 76.4585 15.4607C76.1334 16.1679 75.8204 16.8913 75.4709 17.6026C75.1213 18.3139 74.723 18.9438 74.402 19.6429C73.9386 20.6549 73.8939 21.8092 74.2841 22.8537Z" fill="#FDFDFD"/>
<path d="M72.2479 9.77075C72.2275 9.9252 72.2153 9.98616 72.2113 10.0512C72.1625 10.7299 72.1341 11.4087 72.069 12.0834C71.9796 13.071 71.8089 14.0546 71.7805 15.0463C71.7926 15.9079 72.1178 16.737 72.6909 17.3792C73.4103 16.737 73.837 15.8266 73.8655 14.8593C73.8208 13.0466 73.2599 11.2827 72.2479 9.77075Z" fill="#FDFDFD"/>
<path d="M5.81611 9.86011C5.53567 10.4251 5.22272 11.0063 4.94634 11.6118C4.45049 12.6361 4.21476 13.77 4.2554 14.908C4.29605 15.8469 4.71874 16.7289 5.41781 17.3548C6.21848 16.3753 6.5477 15.0991 6.32416 13.8554C6.14533 12.5344 5.98275 11.2135 5.81611 9.86011Z" fill="#FDFDFD"/>
<path d="M10.9778 5.27954C10.738 5.54779 10.4413 5.85261 10.169 6.18183C9.14072 7.25075 8.45791 8.60418 8.21811 10.0673C8.13276 10.8477 8.31159 11.6362 8.73022 12.3027C9.62844 11.6443 10.2178 10.6445 10.356 9.53898C10.5836 8.12052 10.7746 6.68987 10.9778 5.27954Z" fill="#FDFDFD"/>
<path d="M67.1024 5.23901C67.2487 6.15756 67.3828 7.05984 67.5373 7.96213C67.6714 8.76687 67.773 9.57974 67.9722 10.3682C68.1957 11.1567 68.6956 11.8355 69.3784 12.2866C69.8865 11.4493 70.0368 10.4414 69.793 9.49032C69.289 7.86052 68.3623 6.38922 67.1024 5.23901Z" fill="#FDFDFD"/>
<path d="M61.1156 1.87366C61.5627 3.04825 61.9854 4.23098 62.469 5.38525C62.7373 6.0071 63.0665 6.60049 63.4485 7.15731C63.7778 7.60032 64.2289 7.9336 64.7491 8.11243C64.9889 7.27924 64.9402 6.38915 64.6109 5.58847C63.8265 4.04402 62.6113 2.75156 61.1156 1.87366Z" fill="#FDFDFD"/>
<path d="M13.3879 8.16527C13.7212 7.95799 14.0464 7.73851 14.3593 7.49871C15.0015 6.86874 15.4729 6.09245 15.7371 5.23487C16.172 4.12531 16.6313 3.02793 17.0743 1.91836C17.054 1.90211 17.0337 1.88585 17.0093 1.87366C15.79 2.62963 14.7373 3.62946 13.9122 4.80405C13.2497 5.79575 13.0587 7.02319 13.3879 8.16527Z" fill="#FDFDFD"/>
<path d="M23.6057 0.00805664C22.3133 0.467328 21.1224 1.1664 20.0982 2.07681C19.5698 2.54827 19.1756 3.15386 18.9642 3.83261C18.8586 4.27562 18.7732 4.72676 18.7163 5.17791C19.6633 5.0194 20.5046 4.4829 21.0452 3.69442C21.919 2.48324 22.7441 1.24362 23.6057 0.00805664Z" fill="#FDFDFD"/>
<path d="M59.3151 5.14953C59.3842 4.25537 59.1078 3.37341 58.551 2.67434C57.4699 1.44284 56.0799 0.516172 54.5273 0C55.2629 1.08518 55.9823 2.17036 56.7342 3.24335C57.035 3.66198 57.3805 4.04809 57.7544 4.40169C58.1852 4.80812 58.7298 5.06824 59.3151 5.14953Z" fill="#FDFDFD"/>
<path d="M30.1778 0.0731201C29.8282 0.117828 29.5763 0.142214 29.3283 0.182858C28.0846 0.321046 26.8897 0.727479 25.8249 1.38184C25.0404 1.90208 24.4592 2.67837 24.1829 3.57659C24.3617 3.58878 24.508 3.6091 24.6543 3.60504C25.3412 3.58065 26.0037 3.34492 26.5442 2.92629C27.7473 2.01994 28.9138 1.06889 30.1778 0.0731201Z" fill="#FDFDFD"/>
<path d="M47.9471 0.0731201C49.0567 0.967277 50.0728 1.83705 51.1417 2.62553C51.6823 2.99132 52.2635 3.29208 52.8772 3.51562C53.2267 3.60097 53.5885 3.64162 53.9461 3.63349C53.7673 3.01571 53.4421 2.45076 52.9951 1.98743C51.5807 0.792509 49.8005 0.117828 47.9471 0.0731201Z" fill="#FDFDFD"/>
<path d="M0 21.0533C0.573073 21.9434 1.28433 22.736 2.10127 23.4066C2.49145 23.748 2.87756 24.0894 3.23928 24.4552C4.10906 25.3128 4.57239 26.4996 4.51143 27.7189C3.6254 27.7392 2.76782 27.3897 2.14598 26.7597C1.30872 25.894 0.731583 24.8129 0.479593 23.6342C0.300762 22.9555 0.211346 22.2564 0.0772226 21.5655C0.0569009 21.4679 0.0284504 21.3744 0 21.2769L0 21.0533Z" fill="#FDFDFD"/>
<path d="M39.3348 4.30412C44.9761 4.21877 50.593 5.07228 55.9539 6.83214C59.7256 8.01893 63.2494 9.88447 66.3505 12.3393C68.5249 14.0057 70.2482 16.1842 71.3659 18.6838C72.9957 22.3945 72.5446 26.6865 70.1873 29.9827C68.4599 32.4985 66.1961 34.5998 63.5583 36.1361C59.8638 38.3674 55.8198 39.9688 51.601 40.8751C48.1585 41.6636 44.6469 42.1026 41.1191 42.196C34.2462 42.4846 27.3856 41.3994 20.9436 38.9974C17.3873 37.7131 14.1155 35.7581 11.2989 33.2382C9.21798 31.4336 7.6776 29.0926 6.8444 26.4711C5.8649 23.1911 6.40546 19.647 8.31163 16.8061C10.0674 14.1398 12.4207 11.9207 15.1844 10.3194C18.948 8.05958 23.0693 6.44603 27.3653 5.54781C30.5517 4.82842 33.7992 4.41386 37.0628 4.31225C37.8229 4.27567 38.5788 4.30412 39.3348 4.30412ZM12.7215 17.9319C12.8678 17.9481 12.9694 17.9522 13.0669 17.9685C14.0058 18.0985 14.3106 18.444 14.3106 19.391C14.3106 22.7847 14.3106 26.1784 14.3106 29.5681C14.3756 30.2306 13.892 30.8159 13.2336 30.8809C13.2051 30.885 13.1767 30.885 13.1482 30.885L12.7133 30.9419V31.4336H13.1482C14.965 31.4336 16.7817 31.4458 18.5944 31.4336C19.2244 31.4336 19.8544 31.3808 20.4722 31.2792C22.8376 30.9784 24.821 29.3527 25.5892 27.097C26.1175 25.6298 26.2192 24.0406 25.8818 22.5165C25.642 21.2565 25.008 20.1022 24.0732 19.2243C22.671 17.9969 20.8542 17.3547 18.9927 17.4279C17.0256 17.3995 15.0585 17.4279 13.0913 17.4279H12.7255L12.7215 17.9319ZM42.3912 31.4255H42.8261C44.6672 31.4255 46.5124 31.4377 48.3536 31.4255C48.9592 31.4255 49.5607 31.3686 50.1582 31.2629C52.3732 30.9703 54.2632 29.5112 55.1045 27.4384C55.832 25.711 55.9377 23.7886 55.4012 21.9962C54.946 20.2567 53.7145 18.826 52.0684 18.1107C50.9914 17.6352 49.8249 17.3995 48.6503 17.4116H42.7489C42.6269 17.4116 42.505 17.4238 42.3993 17.432C42.2774 17.814 42.3993 17.94 42.7651 17.9847C43.6796 18.0945 43.9885 18.4724 43.9885 19.3869C43.9885 22.7563 43.9885 26.1256 43.9885 29.4909C44.086 30.1574 43.6268 30.7752 42.9602 30.8728C42.887 30.885 42.8139 30.889 42.7407 30.885C42.3465 30.8972 42.2733 31.0557 42.3912 31.4255ZM41.3832 24.1178C41.3304 23.5122 41.241 22.9148 41.1069 22.3214C40.55 19.6674 38.4041 17.6392 35.7257 17.2287C33.0716 16.6069 30.312 17.6677 28.7594 19.9112C27.4385 21.7605 27.0076 24.0975 27.5766 26.2922C28.3407 30.064 32.019 32.5026 35.7907 31.7385C36.8515 31.5231 37.8432 31.0679 38.6967 30.4013C40.5419 28.8568 41.5417 26.5239 41.3832 24.1178ZM57.0513 26.7393V31.7872C57.3805 31.8604 57.6203 31.8726 57.7219 31.4621C57.7991 31.1451 58.0918 31.0638 58.3925 31.1451C58.6933 31.2264 59.0144 31.3442 59.3273 31.4499C60.6442 31.9173 62.0748 31.962 63.4161 31.5718C65.1028 31.0882 66.318 29.6128 66.4684 27.8611C66.635 26.1053 65.7246 24.4186 64.1598 23.5976C63.6559 23.3375 63.1478 23.0855 62.656 22.8091C61.7863 22.3173 60.8799 21.858 60.0508 21.289C59.4046 20.7932 59.1566 19.9356 59.4371 19.1756C59.5956 18.4481 60.1971 17.8994 60.9327 17.8059C61.9407 17.5986 62.9893 17.9156 63.7128 18.6472C64.4443 19.3341 64.9686 20.212 65.2328 21.1793C65.3466 21.5735 65.5377 21.6467 65.9116 21.5288C65.9116 21.3947 65.9278 21.2606 65.9278 21.1265V17.4929C65.9278 17.3304 66.0416 17.0865 65.7287 17.058C65.4848 17.0337 65.31 17.058 65.2247 17.3629C65.1678 17.6555 64.8792 17.8465 64.5866 17.7896C64.55 17.7815 64.5175 17.7734 64.485 17.7571C64.2411 17.6961 64.0013 17.623 63.7656 17.5295C62.9324 17.1922 62.0342 17.0499 61.14 17.1068C59.6891 17.0743 58.3478 17.8831 57.6975 19.1837C56.9456 20.5453 57.0188 22.2076 57.8804 23.5C58.3519 24.1747 58.9778 24.7315 59.7053 25.1176C60.4816 25.5525 61.2945 25.9386 62.0748 26.3695C62.5463 26.6093 62.9934 26.8897 63.4161 27.2067C64.0623 27.7351 64.3143 28.6089 64.0542 29.4015C63.9241 30.2021 63.3226 30.8402 62.5341 31.0231C61.3676 31.3605 60.1077 31.0353 59.2501 30.1696C58.4576 29.3324 57.917 28.2838 57.7016 27.1498C57.5797 26.6499 57.5797 26.6499 57.0513 26.7393ZM39.1113 10.9697C39.0544 11.0184 38.9934 11.0631 38.9284 11.1038C37.831 11.5509 36.6564 11.7866 35.4696 11.7947C35.3314 11.7947 35.1932 11.7663 35.0672 11.7094C34.9656 11.6606 34.8965 11.5427 34.8112 11.4574C34.9006 11.3842 34.9981 11.3273 35.1038 11.2907C35.6322 11.1973 35.8151 10.9087 35.6566 10.4047C35.1892 9.3114 34.0959 8.62046 32.9091 8.65704C34.0349 10.425 34.6242 12.4816 34.6161 14.5788H44.4315C44.4315 12.4978 45.0249 10.4575 46.1426 8.70175C45.033 8.67329 44.0007 9.27482 43.4764 10.2503C43.1716 10.8884 43.3382 11.2216 44.0251 11.3598C44.1023 11.3883 44.1754 11.4249 44.2405 11.4736C44.1917 11.5549 44.1592 11.689 44.0942 11.7094C43.8869 11.7906 43.6674 11.8394 43.4439 11.8475C42.3953 11.8232 41.3629 11.624 40.3834 11.2501C40.2493 11.2013 40.1233 11.1404 39.9079 11.0469C40.1233 10.9575 40.2533 10.9046 40.3753 10.8558C40.8183 10.7542 41.0947 10.3112 40.9931 9.86821C40.9809 9.81944 40.9646 9.77067 40.9443 9.72596C40.6273 8.93341 40.1355 8.22215 39.5096 7.64908C38.9243 8.20589 38.461 8.88058 38.148 9.62435C37.9407 10.043 38.1114 10.547 38.5301 10.7542C38.591 10.7827 38.652 10.8071 38.717 10.8193L39.1113 10.9697ZM40.0298 6.6086C40.0176 6.27939 39.7412 6.01927 39.412 6.0274C39.0869 6.02334 38.8186 6.28752 38.8146 6.61673C38.8146 6.63299 38.8146 6.64925 38.8146 6.66551C38.839 6.99472 39.1153 7.24671 39.4445 7.23858C39.7778 7.21013 40.0257 6.93782 40.0298 6.6086ZM47.2115 7.69379C47.2156 7.4296 47.0083 7.21419 46.7482 7.20606C46.7441 7.20606 46.736 7.20606 46.7319 7.20606C46.4799 7.18981 46.2605 7.38083 46.2442 7.63282C46.2442 7.64501 46.2442 7.66127 46.2442 7.67347C46.2279 7.93358 46.423 8.16119 46.6872 8.17744C46.7035 8.17744 46.7197 8.17744 46.736 8.17744C47.0042 8.17338 47.2156 7.94984 47.2115 7.68159V7.69379ZM32.3441 8.18964C32.6124 8.18557 32.8278 7.97016 32.8237 7.70192C32.8237 7.69785 32.8237 7.69785 32.8237 7.69379C32.8318 7.43367 32.6286 7.21826 32.3685 7.20606C32.3604 7.20606 32.3523 7.20606 32.3482 7.20606C32.0799 7.20606 31.8605 7.42147 31.8605 7.68972C31.8605 7.69785 31.8605 7.70598 31.8605 7.71817C31.8686 7.97829 32.084 8.18151 32.3441 8.18151V8.18964Z" fill="#FDFDFD"/>
<path d="M27.1864 47.1952C28.5154 46.7522 29.7185 45.9922 30.6899 44.9801C32.027 43.8665 33.8154 43.4479 35.5061 43.8543C35.4411 44.8257 34.9656 45.7239 34.2055 46.3295C33.3642 46.9595 32.3644 47.3456 31.3198 47.4431C29.9908 47.6057 28.6455 47.5529 27.3368 47.2887C27.3002 47.2846 27.2718 47.2521 27.1864 47.1952Z" fill="#FDFDFD"/>
<path d="M50.8775 47.2846C50.3207 47.3537 49.7679 47.4391 49.2111 47.4878C47.8048 47.6504 46.3782 47.4797 45.0533 46.9839C43.7974 46.553 42.8748 45.4719 42.6472 44.1632C42.6309 44.0779 42.6309 43.9884 42.6187 43.8543C44.0941 43.5048 45.6467 43.773 46.9188 44.5981C47.1748 44.7769 47.4268 44.972 47.6626 45.1793C48.5649 46.0938 49.6744 46.7847 50.8937 47.1952L50.8775 47.2846Z" fill="#FDFDFD"/>
<path d="M39.095 47.9999C37.8147 47.9959 36.7824 46.9554 36.7864 45.6751C36.7905 44.3949 37.831 43.3625 39.1113 43.3666C40.3915 43.3707 41.4239 44.4111 41.4198 45.6914C41.4198 45.6995 41.4198 45.7077 41.4198 45.7117C41.4117 46.9839 40.3712 48.0081 39.0991 47.9999H39.095Z" fill="#FDFDFD"/>
<path d="M26.8816 42.7488C26.5361 44.1185 25.4225 45.159 24.0365 45.4069C22.4474 45.7198 20.8095 45.6345 19.265 45.1549C18.9602 45.0736 18.6635 44.9761 18.2611 44.8541C18.57 44.8094 18.8748 44.7363 19.1715 44.6387C19.96 44.2811 20.7282 43.8827 21.5085 43.5088C22.2117 43.1186 22.9392 42.7854 23.6951 42.509C24.7559 42.2651 25.8655 42.3505 26.8816 42.7488Z" fill="#FDFDFD"/>
<path d="M51.2433 42.7692C52.6984 42.192 54.3322 42.2693 55.7263 42.9846C56.1774 43.2325 56.6164 43.5089 57.0553 43.7771C57.8845 44.3136 58.8152 44.6835 59.7866 44.8623C58.6933 45.2769 57.5471 45.5248 56.3807 45.5939C55.3117 45.6996 54.2306 45.541 53.2348 45.1346C52.2431 44.6997 51.5075 43.8259 51.2433 42.7692Z" fill="#FDFDFD"/>
<path d="M66.9316 41.3385C66.6674 41.4686 66.4073 41.6068 66.1391 41.7287C64.7003 42.4684 63.0949 42.8302 61.4773 42.7733C60.1442 42.7367 58.9452 41.9644 58.3599 40.7655C59.0509 40.3509 59.8231 40.0867 60.6197 39.9851C61.4773 39.9038 62.3389 40.0258 63.1355 40.3468C64.1232 40.7939 65.1718 41.0906 66.2448 41.2288L66.8951 41.2694L66.9316 41.3385Z" fill="#FDFDFD"/>
<path d="M19.7649 40.7533C19.2406 41.8791 18.1554 42.6351 16.9198 42.7367C14.912 42.8627 12.9124 42.3547 11.2013 41.2898C12.3312 41.2329 13.4408 40.9768 14.4812 40.5298C14.9974 40.3266 15.5258 40.164 16.0663 40.0421C17.3466 39.8104 18.6634 40.0664 19.7649 40.7533Z" fill="#FDFDFD"/>
<path d="M72.4429 36.6726C71.4553 37.5424 70.3376 38.2496 69.1305 38.778C68.2892 39.16 67.3706 39.3348 66.448 39.286C65.497 39.2251 64.6191 38.7699 64.0175 38.0301C65.1434 36.9206 66.7163 36.3963 68.2811 36.6036C69.3784 36.8271 70.5043 36.8921 71.6219 36.7986L72.4429 36.6726Z" fill="#FDFDFD"/>
<path d="M5.68604 36.6523C7.06791 36.9368 8.49044 36.9246 9.86825 36.6239C11.4249 36.4166 12.9897 36.9449 14.1074 38.0464C13.5018 38.7942 12.6076 39.2494 11.6484 39.3023C10.8925 39.3388 10.1365 39.225 9.42524 38.9568C8.04336 38.4244 6.77528 37.644 5.68604 36.6523Z" fill="#FDFDFD"/>
<path d="M9.6975 35.2418C8.64484 35.9612 7.29141 36.0669 6.1412 35.5182C4.81216 34.8964 3.65382 33.9697 2.7556 32.8073C2.54019 32.5431 2.32071 32.2667 2.13782 32.031C2.97507 32.2464 3.81639 32.4903 4.66584 32.6813C5.32833 32.8276 6.01114 32.8764 6.67363 33.0146C7.93764 33.3194 9.03095 34.1201 9.6975 35.2418Z" fill="#FDFDFD"/>
<path d="M75.9992 32.0107C74.9506 33.5918 73.4753 34.8436 71.7439 35.6199C70.6465 36.0792 69.3906 35.945 68.4152 35.2622C69.1386 34.0348 70.366 33.1853 71.7723 32.9496C72.4754 32.8277 73.1948 32.7708 73.8939 32.6163C74.593 32.4619 75.2636 32.2262 75.9992 32.0107Z" fill="#FDFDFD"/>
<path d="M71.5935 31.836C71.8902 30.6939 72.6177 29.7144 73.6216 29.0926C74.1215 28.804 74.6418 28.5398 75.1701 28.3081C76.1334 27.9058 77.0316 27.3693 77.8404 26.7068C77.2795 28.4951 76.2147 30.0883 74.7718 31.2832C73.8777 31.9986 72.6787 32.2018 71.5935 31.836Z" fill="#FDFDFD"/>
<path d="M0.260132 26.6946C1.28841 27.5237 2.44269 28.1821 3.68231 28.6455C5.06419 29.2226 6.10466 30.4013 6.50297 31.8441C5.88925 32.0677 5.21864 32.088 4.59273 31.901C3.92211 31.7141 3.31246 31.3605 2.81254 30.8768C1.64607 29.7022 0.77224 28.2675 0.260132 26.6946Z" fill="#FDFDFD"/>
<path d="M78.0599 21.1833C77.9745 22.7237 77.5681 24.2316 76.8609 25.6054C76.3488 26.654 75.3937 27.414 74.2556 27.6741C74.0402 27.7188 73.833 27.7229 73.585 27.7473C73.5322 26.9832 73.711 26.2191 74.0971 25.5525C74.4345 25.0079 74.8368 24.508 75.2961 24.0609C76.3325 23.2237 77.2633 22.2563 78.0599 21.1833Z" fill="#FDFDFD"/>
<path d="M3.86117 22.8741C2.78818 22.4798 1.96312 21.5979 1.6461 20.4964C1.21122 18.826 1.21934 17.0661 1.66642 15.3916C2.04441 16.5377 2.56464 17.6311 3.21494 18.6471C3.8124 19.5454 4.1091 20.6062 4.06032 21.6832C4.02374 22.0693 3.93433 22.4473 3.86117 22.8741Z" fill="#FDFDFD"/>
<path d="M74.2841 22.8539C73.8939 21.8094 73.9386 20.6551 74.402 19.639C74.723 18.944 75.1295 18.2856 75.4709 17.5987C75.8123 16.9118 76.1334 16.164 76.4585 15.4568C76.4788 15.5584 76.5235 15.7088 76.5479 15.8673C76.8649 17.3264 76.8568 18.8343 76.5195 20.2893C76.2512 21.4639 75.4099 22.4271 74.2841 22.8539Z" fill="#FDFDFD"/>
<path d="M72.2479 9.77075C73.2599 11.2786 73.8248 13.0426 73.8695 14.8593C73.837 15.8226 73.4143 16.733 72.6949 17.3792C72.1219 16.737 71.8008 15.9079 71.7845 15.0463C71.813 14.0586 71.9837 13.071 72.0731 12.0834C72.1341 11.4046 72.1666 10.7259 72.2153 10.0512C72.2153 9.99023 72.2235 9.9252 72.2479 9.77075Z" fill="#FDFDFD"/>
<path d="M5.81603 9.86011C5.9908 11.2176 6.15337 12.5385 6.34033 13.8554C6.56387 15.0991 6.23466 16.3753 5.43398 17.3548C4.73085 16.7289 4.31222 15.8469 4.27158 14.908C4.23094 13.77 4.46667 12.6401 4.96252 11.6118C5.21044 11.0063 5.52746 10.4251 5.81603 9.86011Z" fill="#FDFDFD"/>
<path d="M10.9778 5.27954C10.7746 6.68581 10.5835 8.11646 10.3641 9.53898C10.2259 10.6445 9.63654 11.6443 8.73831 12.3027C8.32375 11.6362 8.14085 10.8477 8.22621 10.0673C8.47007 8.60418 9.14881 7.25075 10.1771 6.18183C10.4413 5.85261 10.738 5.54779 10.9778 5.27954Z" fill="#FDFDFD"/>
<path d="M67.1024 5.23901C68.3623 6.39329 69.289 7.86052 69.793 9.49032C70.0368 10.4414 69.8865 11.4493 69.3784 12.2866C68.6956 11.8355 68.1957 11.1567 67.9722 10.3682C67.7689 9.57974 67.6673 8.76687 67.5373 7.96213C67.3869 7.06391 67.2487 6.15756 67.1024 5.23901Z" fill="#FDFDFD"/>
<path d="M61.1156 1.87366C62.6153 2.75156 63.8306 4.04402 64.6191 5.58847C64.9483 6.38915 64.9971 7.27924 64.7573 8.11243C64.237 7.9336 63.7818 7.60032 63.4567 7.15731C63.0746 6.60049 62.7454 6.0071 62.4772 5.38525C61.9813 4.23098 61.5627 3.04825 61.1156 1.87366Z" fill="#FDFDFD"/>
<path d="M13.388 8.16523C13.0628 7.02315 13.2538 5.79572 13.9123 4.80808C14.7373 3.63348 15.79 2.63365 17.0093 1.87769C17.0337 1.88988 17.054 1.90614 17.0743 1.92239C16.6313 3.0279 16.172 4.12933 15.7372 5.2389C15.473 6.09648 14.9974 6.87277 14.3593 7.50274C14.0464 7.73848 13.7212 7.96202 13.388 8.16523Z" fill="#FDFDFD"/>
<path d="M23.6057 0.00805664C22.7359 1.24768 21.919 2.49137 21.0452 3.69442C20.5006 4.48697 19.6592 5.0194 18.7163 5.17791C18.7773 4.72676 18.8586 4.27562 18.9642 3.83261C19.1756 3.15793 19.5698 2.54827 20.0982 2.07681C21.1224 1.17046 22.3133 0.467328 23.6057 0.00805664Z" fill="#FDFDFD"/>
<path d="M59.3151 5.14953C58.7298 5.06824 58.1852 4.80812 57.7544 4.40169C57.3764 4.04809 57.035 3.66198 56.7342 3.24335C55.9823 2.17849 55.2629 1.08925 54.5273 0C56.0839 0.520236 57.4699 1.44284 58.551 2.67434C59.1078 3.37341 59.3842 4.25944 59.3151 5.14953Z" fill="#FDFDFD"/>
<path d="M30.1778 0.0731201C28.9138 1.06889 27.7473 2.02401 26.5442 2.92629C25.9996 3.34492 25.3371 3.58065 24.6543 3.60504C24.508 3.60504 24.3658 3.58878 24.1829 3.57659C24.4592 2.6743 25.0404 1.89801 25.8249 1.38184C26.8897 0.727479 28.0846 0.316981 29.3283 0.182858C29.5763 0.146279 29.8282 0.117828 30.1778 0.0731201Z" fill="#FDFDFD"/>
<path d="M47.9471 0.0731201C49.7964 0.117828 51.5725 0.79251 52.9869 1.98336C53.434 2.4467 53.7592 3.01164 53.938 3.62942C53.5763 3.63755 53.2186 3.59691 52.8691 3.51156C52.2554 3.28802 51.6741 2.98726 51.1336 2.62147C50.0728 1.83705 49.0567 0.971341 47.9471 0.0731201Z" fill="#FDFDFD"/>
<path d="M17.5498 24.3089C17.5498 22.5409 17.5498 20.777 17.5498 19.009C17.5498 18.4075 17.6717 18.2571 18.2651 18.1392C19.5617 17.9076 20.8663 18.5131 21.5207 19.6593C22.0937 20.6429 22.4352 21.7443 22.5246 22.8783C22.7318 24.4837 22.6384 26.1094 22.2523 27.6823C22.1303 28.1456 21.9515 28.5927 21.7239 29.0114C21.0899 30.1941 19.7852 30.8606 18.4562 30.6777C17.7896 30.6412 17.5701 30.381 17.562 29.7064C17.5498 28.7716 17.562 27.8408 17.562 26.906C17.5539 26.0444 17.5498 25.1787 17.5498 24.3089Z" fill="#FDFDFD"/>
<path d="M47.1667 24.3495C47.1667 22.6221 47.1667 20.8907 47.1667 19.1634C47.1667 18.4074 47.3496 18.1879 48.1015 18.131C49.3412 17.9888 50.5483 18.6025 51.162 19.6917C51.6782 20.5534 51.9992 21.5166 52.1049 22.5124C52.4097 24.3942 52.2919 26.3207 51.7594 28.1537C51.4709 29.4055 50.471 30.3729 49.207 30.6167C48.7478 30.6817 48.2844 30.698 47.8211 30.6574C47.5163 30.6411 47.2683 30.4013 47.2439 30.0965C47.1992 29.8364 47.1789 29.5722 47.1749 29.308C47.1627 27.6579 47.1667 26.0037 47.1667 24.3495Z" fill="#FDFDFD"/>
<path d="M37.9244 24.569C37.9326 26.0484 37.7009 27.5237 37.2294 28.9259C36.9368 29.9705 36.1199 30.7833 35.0753 31.0719C33.9292 31.3849 32.7058 30.9337 32.0393 29.9502C31.515 29.1698 31.1898 28.2797 31.0841 27.3449C30.7062 25.1258 30.7915 22.8538 31.3443 20.6672C31.5231 19.9437 31.8686 19.269 32.3522 18.696C33.3155 17.5823 34.9981 17.4604 36.1117 18.4196C36.2093 18.505 36.3028 18.5984 36.3881 18.696C37.0587 19.5251 37.4814 20.5249 37.6034 21.5857C37.7578 22.5856 37.8228 23.5773 37.9244 24.569Z" fill="#FDFDFD"/>
<path d="M104.649 21.3252C104.649 22.6498 104.134 23.6617 103.104 24.3609C102.074 25.0477 100.577 25.3912 98.6149 25.3912H97.051V28.6292C97.051 29.0953 97.0817 29.4755 97.143 29.7699C97.2044 30.052 97.3331 30.2728 97.5294 30.4322C97.7256 30.5917 97.9955 30.6959 98.3389 30.745C98.6823 30.7941 99.1423 30.8186 99.7188 30.8186V31.5545H92.4147V30.8186C92.8195 30.8063 93.1507 30.7695 93.4082 30.7082C93.6658 30.6469 93.862 30.5426 93.997 30.3954C94.1319 30.2482 94.2239 30.0397 94.2729 29.7699C94.322 29.5001 94.3465 29.1505 94.3465 28.7212V20.2213C94.3465 19.792 94.322 19.4486 94.2729 19.191C94.2361 18.9212 94.1564 18.7127 94.0338 18.5655C93.9111 18.406 93.7333 18.3018 93.5002 18.2527C93.2794 18.1914 92.9851 18.1485 92.6171 18.1239V17.388H98.9828C100.847 17.388 102.258 17.7192 103.214 18.3815C104.171 19.0438 104.649 20.0251 104.649 21.3252ZM97.051 24.2873H98.2469C99.4367 24.2873 100.308 24.0481 100.859 23.5698C101.411 23.0914 101.687 22.3371 101.687 21.3068C101.687 20.3869 101.454 19.6755 100.988 19.1726C100.522 18.6697 99.7924 18.4183 98.7989 18.4183H97.3822C97.1614 18.4183 97.051 18.5225 97.051 18.7311V24.2873Z" fill="#FDFDFD"/>
<path d="M112.333 31.5545H105.765V30.8186C106.182 30.8063 106.513 30.7695 106.759 30.7082C107.016 30.6346 107.212 30.5058 107.347 30.3218C107.482 30.1379 107.574 29.8803 107.623 29.5491C107.672 29.2057 107.697 28.7457 107.697 28.1693V20.7732C107.697 20.2581 107.672 19.8349 107.623 19.5038C107.586 19.1603 107.507 18.8905 107.384 18.6943C107.261 18.498 107.084 18.3631 106.851 18.2895C106.63 18.2036 106.329 18.1485 105.949 18.1239V17.388H112.149V18.1239C111.769 18.1485 111.462 18.2036 111.229 18.2895C111.008 18.3631 110.837 18.498 110.714 18.6943C110.591 18.8905 110.506 19.1603 110.457 19.5038C110.42 19.8349 110.401 20.2581 110.401 20.7732V28.1693C110.401 28.7457 110.42 29.2057 110.457 29.5491C110.506 29.8803 110.598 30.1379 110.733 30.3218C110.88 30.5058 111.076 30.6346 111.321 30.7082C111.579 30.7695 111.916 30.8063 112.333 30.8186V31.5545Z" fill="#FDFDFD"/>
<path d="M125.869 21.3252C125.869 22.6498 125.354 23.6617 124.323 24.3609C123.293 25.0477 121.797 25.3912 119.834 25.3912H118.27V28.6292C118.27 29.0953 118.301 29.4755 118.362 29.7699C118.424 30.052 118.552 30.2728 118.749 30.4322C118.945 30.5917 119.215 30.6959 119.558 30.745C119.902 30.7941 120.362 30.8186 120.938 30.8186V31.5545H113.634V30.8186C114.039 30.8063 114.37 30.7695 114.628 30.7082C114.885 30.6469 115.081 30.5426 115.216 30.3954C115.351 30.2482 115.443 30.0397 115.492 29.7699C115.541 29.5001 115.566 29.1505 115.566 28.7212V20.2213C115.566 19.792 115.541 19.4486 115.492 19.191C115.455 18.9212 115.376 18.7127 115.253 18.5655C115.13 18.406 114.953 18.3018 114.72 18.2527C114.499 18.1914 114.204 18.1485 113.836 18.1239V17.388H120.202C122.067 17.388 123.477 17.7192 124.434 18.3815C125.39 19.0438 125.869 20.0251 125.869 21.3252ZM118.27 24.2873H119.466C120.656 24.2873 121.527 24.0481 122.079 23.5698C122.631 23.0914 122.907 22.3371 122.907 21.3068C122.907 20.3869 122.674 19.6755 122.208 19.1726C121.741 18.6697 121.012 18.4183 120.018 18.4183H118.602C118.381 18.4183 118.27 18.5225 118.27 18.7311V24.2873Z" fill="#FDFDFD"/>
</svg>
